<svg width="439.259" height="106.642" viewBox="0 0 439.259 106.642" xmlns="http://www.w3.org/2000/svg"><g id="svgGroup" stroke-linecap="round" fill-rule="evenodd" font-size="9pt" stroke="#000" stroke-width="0.25mm" fill="#000" style="stroke:#000;stroke-width:0.25mm;fill:#000"><path d="M 50.391 42.481 L 9.863 33.399 A 8.101 8.101 0 0 1 7.598 32.508 A 10.355 10.355 0 0 1 6.445 31.739 A 15.031 15.031 0 0 1 5.266 30.818 Q 3.418 29.206 3.418 27.833 A 10.088 10.088 0 0 1 5.521 21.795 Q 7.904 18.531 12.988 15.626 A 60.682 60.682 0 0 1 21.901 11.57 Q 26.549 9.862 32.078 8.516 A 135.051 135.051 0 0 1 41.211 6.641 Q 44.383 6.1 46.268 5.926 A 21.649 21.649 0 0 1 47.168 5.86 A 4.501 4.501 0 0 0 47.548 5.966 Q 47.968 6.066 48.581 6.151 A 21.357 21.357 0 0 0 48.975 6.202 Q 50.195 6.348 51.465 6.641 Q 54.374 7.298 54.037 9.037 A 2.234 2.234 0 0 1 54.004 9.181 A 2.273 2.273 0 0 1 53.055 10.894 Q 51.141 12.518 45.37 13.727 A 77.145 77.145 0 0 1 41.309 14.454 Q 24.902 16.895 20.85 18.556 A 32.874 32.874 0 0 0 18.641 19.55 Q 16.512 20.612 15.271 21.713 A 8.314 8.314 0 0 0 14.99 21.973 A 6.01 6.01 0 0 0 13.086 26.173 Q 13.086 26.634 15.092 27.183 A 21.071 21.071 0 0 0 15.332 27.247 Q 16.876 27.65 18.836 28.168 A 1768.152 1768.152 0 0 1 20.703 28.663 Q 23.499 29.405 27.779 30.578 A 1875.689 1875.689 0 0 1 28.809 30.86 A 1617.34 1617.34 0 0 1 38.66 33.598 Q 43.085 34.841 48.044 36.256 A 3365.855 3365.855 0 0 1 58.496 39.259 A 12.156 12.156 0 0 1 59.146 41.019 Q 59.473 42.19 59.473 43.263 Q 59.473 48.438 53.418 53.223 A 41.176 41.176 0 0 1 47.273 57.166 Q 41.852 60.044 34.473 62.306 Q 24.414 65.333 18.457 65.333 A 25.762 25.762 0 0 1 8.984 63.575 Q 4.82 61.945 2.586 60.4 A 13.349 13.349 0 0 1 2.246 60.157 Q 0.979 59.221 0.427 58.238 A 3.126 3.126 0 0 1 0 56.69 A 4.094 4.094 0 0 1 0.961 54.059 A 5.787 5.787 0 0 1 1.514 53.468 A 39.961 39.961 0 0 1 2.228 52.815 Q 2.953 52.169 3.478 51.779 A 7.326 7.326 0 0 1 3.857 51.515 A 17.871 17.871 0 0 0 4.239 51.261 Q 4.761 50.904 4.98 50.684 A 9.769 9.769 0 0 0 6.114 54.955 Q 8.687 59.571 16.992 59.571 Q 26.074 59.571 38.184 53.907 Q 45.573 50.548 48.775 47.045 A 12.304 12.304 0 0 0 49.707 45.899 A 8.073 8.073 0 0 0 50.134 45.292 Q 50.546 44.64 50.649 44.127 A 1.662 1.662 0 0 0 50.684 43.8 A 3.817 3.817 0 0 0 50.651 43.281 Q 50.614 43.017 50.538 42.8 A 1.726 1.726 0 0 0 50.391 42.481 Z M 274.512 22.852 L 244.824 102.052 A 15.085 15.085 0 0 1 243.89 103.84 Q 242.66 105.825 241.19 106.404 A 3.38 3.38 0 0 1 239.941 106.641 A 2.387 2.387 0 0 1 239.053 106.484 Q 238.462 106.249 238.081 105.664 A 2.873 2.873 0 0 1 237.939 105.421 A 2.964 2.964 0 0 1 237.609 104.032 Q 237.609 103.663 237.689 103.265 A 5.288 5.288 0 0 1 237.89 102.54 Q 239.737 94.735 242.99 85.055 A 298.868 298.868 0 0 1 244.092 81.837 A 8794.134 8794.134 0 0 0 245.736 77.117 Q 248.444 69.34 249.512 66.212 Q 246.094 62.794 238.77 52.54 A 940.116 940.116 0 0 1 235.245 47.564 Q 223.976 31.539 223.736 29.478 A 0.721 0.721 0 0 1 223.73 29.395 Q 223.73 29.298 223.828 29.2 L 227.539 25.489 A 78.391 78.391 0 0 1 232.249 30.287 Q 236.713 35.194 242.321 42.533 A 362.731 362.731 0 0 1 247.656 49.708 A 221.815 221.815 0 0 1 249.139 51.771 Q 251.105 54.54 252.449 56.639 A 73.368 73.368 0 0 1 252.637 56.934 A 124.098 124.098 0 0 0 254.051 54.016 Q 254.589 52.866 255.041 51.826 A 61.128 61.128 0 0 0 255.859 49.854 A 875.839 875.839 0 0 1 256.418 48.438 Q 257.102 46.707 257.604 45.463 A 254.049 254.049 0 0 1 257.764 45.069 Q 258.324 43.686 259.2 41.587 A 800.596 800.596 0 0 1 259.766 40.235 Q 262.736 32.985 267.738 22.218 A 828.597 828.597 0 0 1 268.945 19.63 Q 269.824 19.239 270.801 19.239 A 7.413 7.413 0 0 1 272.066 19.34 Q 273.544 19.596 274.316 20.509 A 1.747 1.747 0 0 1 274.707 21.632 A 3.835 3.835 0 0 1 274.512 22.852 Z M 73.535 64.552 L 66.016 64.552 A 331.848 331.848 0 0 0 66.162 59.181 A 264.314 264.314 0 0 0 66.211 54.2 Q 66.211 49.415 66.016 42.823 A 1620.564 1620.564 0 0 0 65.796 35.926 A 2090.988 2090.988 0 0 0 65.527 28.419 Q 65.192 22.242 65.087 17.381 A 192.862 192.862 0 0 1 65.039 13.233 A 85.838 85.838 0 0 1 65.273 6.757 A 66.522 66.522 0 0 1 65.82 1.856 Q 66.797 0.001 68.652 0.001 A 5.015 5.015 0 0 1 70.229 0.237 A 4.036 4.036 0 0 1 72.168 1.612 Q 73.438 3.223 73.535 4.493 L 73.047 20.606 A 154.195 154.195 0 0 0 73.102 24.86 Q 73.225 29.3 73.623 32.303 A 31.14 31.14 0 0 0 73.926 34.181 A 36.097 36.097 0 0 1 82.861 29.786 A 29.887 29.887 0 0 1 92.09 28.321 A 42.42 42.42 0 0 1 96.027 28.512 A 51.698 51.698 0 0 1 98.535 28.809 Q 105.859 32.618 108.105 36.915 A 14.993 14.993 0 0 1 109.473 41.7 A 57.173 57.173 0 0 1 109.704 44.231 Q 109.798 45.56 109.849 47.037 A 94.29 94.29 0 0 1 109.863 47.462 A 337.48 337.48 0 0 0 110.175 52.662 Q 110.53 57.881 110.972 61.392 A 62.772 62.772 0 0 0 111.328 63.868 A 2.496 2.496 0 0 1 110.224 64.908 Q 109.293 65.39 107.732 65.497 A 13.793 13.793 0 0 1 106.787 65.528 Q 103.191 65.528 103.126 62.985 A 3.696 3.696 0 0 1 103.125 62.891 A 431.931 431.931 0 0 0 103.098 57.887 Q 103.026 51.684 102.759 48.359 A 39.332 39.332 0 0 0 102.637 47.071 Q 101.946 39.624 100.048 37.609 A 2.282 2.282 0 0 0 98.926 36.915 A 100.106 100.106 0 0 0 94.784 36.194 Q 90.644 35.569 87.649 35.548 A 29.441 29.441 0 0 0 87.451 35.548 Q 83.008 35.548 80.127 38.233 A 11.16 11.16 0 0 0 78.168 40.726 Q 76.728 43.154 75.792 46.878 A 37.161 37.161 0 0 0 75.732 47.12 Q 74.365 52.722 73.675 62.427 A 209.237 209.237 0 0 0 73.535 64.552 Z M 383.105 49.806 L 383.203 43.848 A 173.101 173.101 0 0 0 383.124 38.422 Q 382.952 32.98 382.411 29.33 A 32.557 32.557 0 0 0 381.934 26.759 A 1.601 1.601 0 0 0 382.032 26.539 Q 382.471 25.294 379.59 25.294 Q 376.412 25.294 371.444 26.815 A 59.649 59.649 0 0 0 370.996 26.954 A 86.395 86.395 0 0 0 367.458 28.147 Q 365.811 28.745 364.417 29.344 A 38.242 38.242 0 0 0 362.402 30.274 Q 354.689 33.988 353.661 37.516 A 4.155 4.155 0 0 0 353.613 37.696 L 353.613 64.259 L 347.07 64.259 A 10.404 10.404 0 0 1 346.607 62.414 Q 345.804 57.843 345.801 45.705 A 371.348 371.348 0 0 1 345.801 45.606 A 566.297 566.297 0 0 1 345.834 39.222 Q 345.933 30.538 346.319 25.725 A 75.941 75.941 0 0 1 346.338 25.489 Q 346.875 19.044 347.168 18.165 Q 349.707 16.505 351.27 16.505 Q 353.651 16.505 353.709 21.988 A 26.215 26.215 0 0 1 353.711 22.266 A 38.044 38.044 0 0 1 353.524 26.085 A 34.807 34.807 0 0 1 353.467 26.612 A 78.471 78.471 0 0 0 353.366 27.524 Q 353.248 28.654 353.227 29.259 A 6.89 6.89 0 0 0 353.223 29.493 A 117.483 117.483 0 0 1 360.467 24.546 Q 367.448 20.184 372.679 18.673 A 18.362 18.362 0 0 1 377.734 17.872 Q 387.534 17.872 388.947 33.585 A 51.437 51.437 0 0 1 388.965 33.79 A 79.379 79.379 0 0 1 389.221 36.842 Q 389.448 40.266 389.519 44.832 A 283.582 283.582 0 0 1 389.551 49.22 L 389.453 56.934 A 172.732 172.732 0 0 0 389.603 64.23 A 155.545 155.545 0 0 0 389.648 65.235 Q 388.672 65.821 388.086 65.821 Q 387.793 65.723 386.816 65.528 A 12.39 12.39 0 0 0 386.076 65.405 Q 385.689 65.352 385.24 65.31 A 30.298 30.298 0 0 0 384.277 65.235 A 36.322 36.322 0 0 1 383.203 57.276 A 353.849 353.849 0 0 1 383.13 53.382 A 274.042 274.042 0 0 1 383.105 49.806 Z M 406.641 42.774 L 413.77 41.993 A 124.006 124.006 0 0 1 419.154 40.963 Q 424.105 40.137 427.689 40.05 A 34.027 34.027 0 0 1 428.516 40.04 A 31.688 31.688 0 0 1 432.098 40.224 Q 435.703 40.637 437.493 41.974 A 4.189 4.189 0 0 1 439.258 45.509 A 7.25 7.25 0 0 1 438.586 48.419 Q 437.553 50.773 434.932 53.492 A 37.313 37.313 0 0 1 433.301 55.079 A 52.027 52.027 0 0 1 423.618 61.97 Q 417.365 65.473 409.375 68.067 A 0.881 0.881 0 0 1 408.922 67.927 Q 408.426 67.629 407.861 66.7 A 954.809 954.809 0 0 1 407.471 66.056 Q 407.093 65.433 406.819 64.979 A 232.895 232.895 0 0 1 406.592 64.6 A 17.21 17.21 0 0 0 406.411 64.306 Q 406.163 63.91 406.015 63.737 A 1.084 1.084 0 0 0 405.957 63.673 A 85.977 85.977 0 0 0 414.421 60.4 Q 420.123 57.819 424.414 54.688 Q 429.297 51.173 429.297 48.927 A 1.604 1.604 0 0 0 428.418 47.515 Q 427.046 46.681 423.535 46.681 A 35.22 35.22 0 0 0 419.869 46.897 Q 414.642 47.45 406.641 49.415 A 13.336 13.336 0 0 1 397.852 45.802 A 13.824 13.824 0 0 1 396.222 44 Q 394.629 41.861 394.629 39.698 Q 394.629 36.622 396.387 34.034 A 19.079 19.079 0 0 1 398.887 31.081 A 24.65 24.65 0 0 1 401.074 29.2 A 34.493 34.493 0 0 1 404.897 26.671 A 43.839 43.839 0 0 1 407.91 25.098 Q 417.48 20.509 427.734 20.509 A 28.85 28.85 0 0 1 433.594 21.095 A 3.982 3.982 0 0 1 434.614 21.215 Q 436.032 21.591 436.328 23.145 A 15.129 15.129 0 0 1 436.499 24.336 Q 436.647 25.701 436.695 27.736 A 90.614 90.614 0 0 1 436.719 29.884 A 29.067 29.067 0 0 0 427.892 27.479 A 36.335 36.335 0 0 0 423.73 27.247 Q 416.194 27.247 410.856 29.79 A 20.748 20.748 0 0 0 408.887 30.86 A 15.993 15.993 0 0 0 405.808 33.137 A 9.764 9.764 0 0 0 402.637 40.04 A 2.579 2.579 0 0 0 402.99 41.422 Q 403.825 42.774 406.641 42.774 Z M 150.195 42.091 L 136.133 41.505 Q 129.102 41.505 125.391 44.532 A 7.69 7.69 0 0 0 123.331 47.007 Q 122.79 48.008 122.435 49.253 A 13.969 13.969 0 0 0 122.363 49.513 A 13.125 13.125 0 0 0 124.558 54.103 Q 126.861 57.09 130.943 58 A 18.022 18.022 0 0 0 134.863 58.399 A 28.324 28.324 0 0 0 140.213 57.815 Q 145.63 56.76 153.167 53.8 A 164.366 164.366 0 0 0 160.742 50.587 A 2.571 2.571 0 0 1 161.607 50.727 A 2.227 2.227 0 0 1 162.5 51.319 A 2.426 2.426 0 0 1 163.184 53.028 A 18.303 18.303 0 0 1 158.456 58.236 Q 156.165 59.995 153.109 61.439 A 44.83 44.83 0 0 1 148.242 63.38 Q 137.207 67.091 127.637 64.649 Q 116.797 61.817 114.453 52.442 Q 114.267 50.671 114.258 47.744 A 97.216 97.216 0 0 1 114.258 47.462 A 16.248 16.248 0 0 1 114.415 45.313 Q 114.713 43.097 115.573 40.182 A 57.757 57.757 0 0 1 115.869 39.21 Q 117.48 34.083 121.387 29.493 Q 125.293 24.903 130.566 22.266 A 24.774 24.774 0 0 1 141.797 19.63 Q 147.461 19.63 154.492 23.536 A 22.374 22.374 0 0 1 157.221 25.318 Q 158.605 26.382 159.631 27.576 A 13.776 13.776 0 0 1 159.766 27.735 A 9.694 9.694 0 0 1 160.951 29.497 Q 161.647 30.85 161.712 32.234 A 6.088 6.088 0 0 1 161.719 32.52 Q 161.719 33.204 161.621 33.888 Q 161.446 39.242 156.93 41.046 A 10.624 10.624 0 0 1 155.859 41.407 A 17.507 17.507 0 0 1 153.311 41.909 Q 151.857 42.091 150.195 42.091 Z M 216.992 29.591 A 15.039 15.039 0 0 0 211.721 27.242 Q 209.621 26.735 207.167 26.67 A 27.501 27.501 0 0 0 206.445 26.661 A 28.654 28.654 0 0 0 197.858 27.924 A 26.392 26.392 0 0 0 195.215 28.907 Q 185.449 33.009 181.836 39.454 Q 180.273 42.384 180.273 45.704 L 180.273 48.975 Q 180.273 51.401 181.07 55.341 A 71.697 71.697 0 0 0 181.25 56.202 A 43.769 43.769 0 0 1 182.227 65.431 A 20.96 20.96 0 0 0 180.909 65.532 Q 179.739 65.662 178.906 65.919 A 11.238 11.238 0 0 1 178.08 66.141 Q 177.335 66.309 176.758 66.309 Q 175.879 66.309 175.244 65.528 Q 174.62 64.76 173.854 62.575 A 32.487 32.487 0 0 1 173.828 62.501 Q 173.73 61.915 173.438 59.181 Q 173.145 56.446 172.705 52.54 A 2337.685 2337.685 0 0 0 172.241 48.451 A 3025.897 3025.897 0 0 0 171.729 43.995 Q 171.191 39.356 170.703 34.864 Q 169.629 25.098 169.043 20.509 A 2.22 2.22 0 0 1 169.342 19.327 Q 170.054 18.165 172.461 18.165 A 3.929 3.929 0 0 1 174.087 18.492 Q 175.024 18.913 175.684 19.874 A 13.872 13.872 0 0 1 177.164 22.704 A 16.459 16.459 0 0 1 177.539 23.78 A 23.78 23.78 0 0 1 178.417 27.723 A 21.831 21.831 0 0 1 178.467 28.126 Q 178.711 30.274 178.906 31.153 A 44.977 44.977 0 0 1 205.535 19.87 A 59.39 59.39 0 0 1 210.938 19.63 A 104.553 104.553 0 0 1 214.27 19.685 A 119.17 119.17 0 0 1 215.43 19.727 Q 216.016 19.63 216.895 19.63 Q 217.741 19.63 218.588 20.718 A 5.893 5.893 0 0 1 218.652 20.802 Q 219.727 22.169 219.727 24.122 A 13.232 13.232 0 0 1 219.614 25.928 Q 219.33 27.975 218.334 28.903 A 2.785 2.785 0 0 1 216.992 29.591 Z M 340.527 64.649 L 334.766 64.649 Q 334.375 62.013 334.18 59.962 A 274.179 274.179 0 0 0 333.984 57.984 A 218.166 218.166 0 0 0 333.789 56.153 A 91.9 91.9 0 0 0 333.395 53.228 Q 333.044 50.916 332.617 49.024 Q 325.293 60.548 313.086 63.282 A 30.691 30.691 0 0 1 310.549 63.703 Q 309.35 63.847 308.266 63.865 A 18.403 18.403 0 0 1 307.959 63.868 A 189.257 189.257 0 0 1 306.86 63.865 Q 305.286 63.856 304.15 63.819 Q 302.685 63.772 300.899 63.404 A 26.988 26.988 0 0 1 300.781 63.38 A 12 12 0 0 1 297.56 62.218 A 11.305 11.305 0 0 1 297.363 62.11 A 8.379 8.379 0 0 1 295.458 60.666 A 5.978 5.978 0 0 1 293.75 56.348 A 15.896 15.896 0 0 1 293.445 54.357 A 21.464 21.464 0 0 1 293.359 52.393 A 13.245 13.245 0 0 1 293.455 50.882 Q 293.665 49.067 294.336 46.583 A 24.01 24.01 0 0 1 295.552 43.188 Q 296.485 41.067 297.9 38.77 Q 300.488 34.571 304.199 31.056 A 41.305 41.305 0 0 1 311.971 25.103 A 32.705 32.705 0 0 1 320.898 21.485 A 26.271 26.271 0 0 1 323.388 21.05 A 19.244 19.244 0 0 1 325.732 20.899 A 28.336 28.336 0 0 1 327.804 20.971 A 20.684 20.684 0 0 1 329.688 21.192 A 6.561 6.561 0 0 1 335.447 24.397 Q 336.238 25.599 336.812 27.25 A 20.016 20.016 0 0 1 337.305 28.907 A 35.332 35.332 0 0 1 337.998 32.336 Q 338.651 36.521 338.818 42.53 Q 339.005 49.222 339.192 53.567 A 288.973 288.973 0 0 0 339.307 56.007 A 50.582 50.582 0 0 0 339.803 61.006 A 39.54 39.54 0 0 0 340.527 64.649 Z M 281.738 19.337 L 287.891 19.337 Q 288.982 35.03 289.784 54.979 A 1827.639 1827.639 0 0 1 290.039 61.622 A 3.318 3.318 0 0 1 287.933 64.224 Q 286.89 64.649 285.352 64.649 Q 284.277 64.649 283.154 64.21 A 3.702 3.702 0 0 1 282.568 63.923 Q 282.266 63.738 282.062 63.513 A 1.627 1.627 0 0 1 281.738 62.989 L 281.738 19.337 Z M 332.227 33.888 A 8.335 8.335 0 0 0 331.96 31.681 Q 331.265 29.155 328.758 28.475 A 8.02 8.02 0 0 0 326.66 28.223 Q 325.977 28.126 325.293 28.126 Q 319.687 28.126 313.598 32.353 A 40.144 40.144 0 0 0 310.254 34.962 A 34.13 34.13 0 0 0 303.906 41.993 A 29.376 29.376 0 0 0 301.867 45.317 Q 300 48.916 300 51.954 Q 300 57.716 306.641 58.79 A 21.4 21.4 0 0 0 316.932 55.798 Q 320.247 53.895 323.438 50.782 Q 326.855 47.364 329.102 43.36 A 30.53 30.53 0 0 0 330.75 40.127 Q 331.488 38.417 331.857 36.857 A 12.901 12.901 0 0 0 332.227 33.888 Z M 152.295 28.223 A 15.97 15.97 0 0 0 149.348 26.551 A 13.867 13.867 0 0 0 147.754 25.977 A 22.627 22.627 0 0 0 146.365 25.617 Q 144.922 25.294 143.848 25.294 A 7.388 7.388 0 0 0 142.944 25.358 Q 141.44 25.546 138.884 26.286 A 60.35 60.35 0 0 0 138.77 26.319 A 51.376 51.376 0 0 0 135.449 27.406 A 38.356 38.356 0 0 0 132.52 28.614 A 27.314 27.314 0 0 0 129.977 29.946 Q 125.781 32.46 125.781 35.157 Q 133.594 35.841 137.5 35.841 A 99.83 99.83 0 0 0 142.195 35.739 Q 149.232 35.406 152.148 33.985 A 7.341 7.341 0 0 0 153.062 33.535 Q 154.093 32.925 154.381 32.16 A 1.734 1.734 0 0 0 154.492 31.544 Q 154.492 30.183 153.174 28.938 A 8.209 8.209 0 0 0 152.295 28.223 Z M 282.813 2.638 A 8.631 8.631 0 0 0 282.382 2.648 Q 278.809 2.827 278.809 6.056 A 4.825 4.825 0 0 0 279.713 7.198 A 5.54 5.54 0 0 0 281.152 8.155 A 8.52 8.52 0 0 0 281.787 8.422 A 7.074 7.074 0 0 0 284.277 8.888 A 4.994 4.994 0 0 0 284.293 8.888 Q 285.844 8.883 286.621 7.911 A 4.062 4.062 0 0 0 287.082 7.203 A 2.849 2.849 0 0 0 287.402 5.909 A 7.323 7.323 0 0 0 287.384 5.393 A 8.211 8.211 0 0 0 287.109 3.809 A 5.542 5.542 0 0 0 286.563 3.47 Q 285.708 3.004 284.635 2.799 A 9.707 9.707 0 0 0 282.813 2.638 Z" vector-effect="non-scaling-stroke"/></g></svg>