<svg width="1240.275" height="107.525" viewBox="0 0 1240.275 107.525" xmlns="http://www.w3.org/2000/svg"><g id="svgGroup" stroke-linecap="round" fill-rule="nonzero" font-size="9pt" stroke="#000" stroke-width="2mm" fill="#000" style="stroke:#000;stroke-width:2mm;fill:#000"><path d="M 50.025 11.04 L 42.78 17.48 L 41.285 17.135 A 25.448 25.448 0 0 0 39.625 12.522 A 18.597 18.597 0 0 0 36.455 7.82 A 10.966 10.966 0 0 0 30.434 4.553 A 16.145 16.145 0 0 0 27.255 4.255 Q 21.735 4.255 18.113 8.223 A 13.73 13.73 0 0 0 14.49 17.803 A 17.289 17.289 0 0 0 14.49 17.825 A 13.366 13.366 0 0 0 15.288 22.5 A 12.17 12.17 0 0 0 17.02 25.645 A 22.968 22.968 0 0 0 21.205 29.85 A 28.263 28.263 0 0 0 23.575 31.51 Q 27.6 34.04 32.085 35.995 Q 41.17 39.905 45.77 44.85 Q 50.37 49.795 50.37 56.695 Q 50.37 62.33 47.553 67.103 Q 44.735 71.875 40.135 75.268 Q 35.535 78.66 30.015 80.558 A 33.935 33.935 0 0 1 19.665 82.448 A 32.123 32.123 0 0 1 18.975 82.455 Q 12.995 82.455 7.705 79.753 A 15.297 15.297 0 0 1 1.147 73.232 A 20.742 20.742 0 0 1 0 70.725 L 6.555 63.135 L 8.51 63.25 Q 10.35 69.23 14.03 73.198 Q 17.71 77.165 23.805 77.165 Q 28.29 77.165 32.027 74.923 Q 35.765 72.68 38.008 68.885 A 16.221 16.221 0 0 0 40.195 61.744 A 19.825 19.825 0 0 0 40.25 60.26 A 10.691 10.691 0 0 0 39.094 55.479 A 13.722 13.722 0 0 0 38.238 53.993 A 21.279 21.279 0 0 0 34.356 49.617 A 25.142 25.142 0 0 0 33.005 48.53 A 33.468 33.468 0 0 0 27.408 45.11 A 30.534 30.534 0 0 0 26.335 44.62 A 98.045 98.045 0 0 1 20.902 42.077 Q 17.446 40.32 14.72 38.525 A 26.731 26.731 0 0 1 11.046 35.643 A 19.456 19.456 0 0 1 7.648 31.453 A 16.356 16.356 0 0 1 5.679 26.153 A 22.676 22.676 0 0 1 5.29 21.85 A 24.713 24.713 0 0 1 5.869 16.362 A 17.784 17.784 0 0 1 8.797 9.775 Q 12.305 4.945 17.883 2.473 Q 23.46 0 29.67 0 Q 33.925 0 37.605 0.748 Q 41.285 1.495 44.39 3.853 Q 47.495 6.21 50.025 11.04 Z" id="0" vector-effect="non-scaling-stroke"/><path d="M 121.555 68.425 L 123.05 69.575 L 123.05 70.84 Q 119.255 74.865 114.713 78.373 A 17.396 17.396 0 0 1 110.164 80.948 A 14.673 14.673 0 0 1 104.995 81.88 A 7.055 7.055 0 0 1 102.493 81.459 Q 100.658 80.768 99.536 78.943 A 8.198 8.198 0 0 1 99.188 78.315 A 17.1 17.1 0 0 1 97.413 71.057 A 19.995 19.995 0 0 1 97.405 70.495 A 199.986 199.986 0 0 1 97.427 67.613 Q 97.455 65.654 97.52 63.423 Q 97.635 59.455 97.75 55.833 A 338.73 338.73 0 0 0 97.8 54.119 Q 97.845 52.451 97.859 51.196 A 95.794 95.794 0 0 0 97.865 50.14 A 48.092 48.092 0 0 0 97.659 45.584 A 37.249 37.249 0 0 0 97.175 42.148 Q 96.485 38.525 94.358 36.398 Q 92.596 34.636 89.375 34.333 A 14.965 14.965 0 0 0 87.975 34.27 Q 83.26 34.27 79.12 36.513 A 73.162 73.162 0 0 0 74.288 39.365 A 59.81 59.81 0 0 0 71.645 41.17 Q 71.645 50.6 71.53 60.088 Q 71.415 69.575 71.415 78.89 L 63.135 81.42 L 62.445 80.27 Q 63.02 68.885 63.48 57.5 Q 63.94 46.115 64.055 34.73 L 64.055 19.493 Q 64.055 13.417 62.044 10.308 A 8.003 8.003 0 0 0 61.755 9.89 Q 60.95 8.855 58.075 8.108 Q 55.391 7.41 53.208 6.963 A 66.761 66.761 0 0 0 52.9 6.9 L 52.9 4.83 L 53.475 4.37 L 71.645 2.415 L 72.335 3.22 A 372.387 372.387 0 0 0 71.997 13.748 A 438.463 438.463 0 0 0 71.933 18.803 A 2311.122 2311.122 0 0 0 71.875 34.96 L 72.795 35.88 A 117.242 117.242 0 0 1 80.838 31.384 A 134.584 134.584 0 0 1 83.72 29.958 Q 89.585 27.14 95.91 27.14 A 5.656 5.656 0 0 1 96.752 27.211 Q 97.858 27.379 99.475 27.945 A 10.493 10.493 0 0 1 102.481 29.562 A 9.734 9.734 0 0 1 103.385 30.36 A 7.235 7.235 0 0 1 105.204 33.079 Q 105.67 34.247 105.89 35.715 A 19.119 19.119 0 0 1 106.088 38.353 Q 106.145 43.93 106.145 50.83 L 106.145 59.34 A 128.427 128.427 0 0 1 106.137 60.731 Q 106.13 61.351 106.118 62.038 A 247.672 247.672 0 0 1 106.087 63.48 A 28.888 28.888 0 0 0 106.079 64.168 A 27.114 27.114 0 0 0 106.375 68.195 Q 106.72 70.495 107.813 72.048 A 3.526 3.526 0 0 0 110.068 73.491 A 5.572 5.572 0 0 0 111.205 73.6 Q 114.54 73.6 117.243 71.76 Q 119.945 69.92 121.555 68.425 Z" id="1" vector-effect="non-scaling-stroke"/><path d="M 169.855 44.045 L 137.425 58.075 Q 137.77 61.64 139.323 65.435 Q 140.875 69.23 144.038 71.76 A 11.161 11.161 0 0 0 148.563 73.896 Q 150.157 74.266 152.012 74.289 A 19.961 19.961 0 0 0 152.26 74.29 A 19.065 19.065 0 0 0 160.094 72.571 A 22.908 22.908 0 0 0 161.518 71.875 Q 166.06 69.46 169.97 66.47 L 171.235 66.7 L 172.73 68.77 A 80.546 80.546 0 0 1 165.49 74.771 A 88.522 88.522 0 0 1 164.967 75.153 Q 160.77 78.2 156.113 80.155 Q 151.455 82.11 146.51 82.11 Q 141.658 82.11 138.24 80.391 A 13.013 13.013 0 0 1 137.022 79.695 Q 133.285 77.28 131.215 73.313 A 29.279 29.279 0 0 1 128.789 66.844 A 34.701 34.701 0 0 1 128.282 64.458 Q 127.42 59.57 127.42 54.74 Q 127.42 49.68 128.685 44.85 Q 129.95 40.02 133.285 36.11 Q 137.54 31.165 143.463 28.463 Q 149.385 25.76 155.94 25.76 Q 163.415 25.76 167.843 30.36 Q 172.27 34.96 172.27 41.63 Q 172.27 42.665 171.523 43.125 A 19.58 19.58 0 0 1 170.627 43.643 A 24.822 24.822 0 0 1 169.855 44.045 Z M 137.195 52.9 L 137.655 53.36 L 160.885 44.16 Q 161.388 43.959 161.803 43.406 A 3.648 3.648 0 0 0 161.92 43.24 Q 162.361 42.579 162.379 41.283 A 8.025 8.025 0 0 0 162.38 41.17 A 10.123 10.123 0 0 0 161.848 37.99 A 13.154 13.154 0 0 0 161.115 36.225 Q 159.85 33.695 157.493 32.028 Q 155.135 30.36 151.915 30.36 Q 149.04 30.36 146.568 31.625 A 13.128 13.128 0 0 0 142.4 35.012 A 15.089 15.089 0 0 0 142.255 35.19 A 20.468 20.468 0 0 0 139.788 38.376 A 15.055 15.055 0 0 0 137.943 42.665 A 33.498 33.498 0 0 0 136.965 50.697 A 36.95 36.95 0 0 0 136.965 50.83 A 8.274 8.274 0 0 0 136.987 51.428 A 9.963 9.963 0 0 0 137.022 51.808 A 11.955 11.955 0 0 0 137.117 52.477 A 14.281 14.281 0 0 0 137.195 52.9 Z" id="2" vector-effect="non-scaling-stroke"/><path d="M 221.72 36.11 L 215.51 41.745 L 214.13 41.17 Q 213.67 38.755 212.29 36.628 A 4.494 4.494 0 0 0 209 34.566 A 6.805 6.805 0 0 0 208.035 34.5 A 8.527 8.527 0 0 0 205.319 34.914 A 7.05 7.05 0 0 0 202.285 36.915 A 20.682 20.682 0 0 0 200.718 38.858 Q 199.726 40.265 199.18 41.63 A 8.466 8.466 0 0 0 198.726 43.011 Q 198.392 44.379 198.288 46.283 A 30.023 30.023 0 0 0 198.26 46.92 A 106.493 106.493 0 0 0 198.203 50.414 Q 198.202 52.266 198.26 54.223 A 276.259 276.259 0 0 1 198.346 57.861 Q 198.375 59.588 198.375 61.131 A 166.491 166.491 0 0 1 198.375 61.18 Q 198.375 69.805 198.72 78.66 L 190.67 81.075 L 188.945 80.04 Q 189.52 73.945 189.923 66.815 Q 190.325 59.685 190.325 52.785 Q 190.325 48.3 190.21 43.815 Q 190.122 40.381 189.495 37.824 A 16.697 16.697 0 0 0 189.06 36.34 Q 188.367 34.338 186.953 33.677 A 3.668 3.668 0 0 0 185.38 33.35 A 7.92 7.92 0 0 0 183.581 33.57 Q 182.368 33.853 181.01 34.5 A 65.02 65.02 0 0 0 176.684 36.758 A 59.678 59.678 0 0 0 176.41 36.915 L 175.03 34.96 A 121.095 121.095 0 0 1 178.062 32.615 A 145.769 145.769 0 0 1 180.033 31.165 A 44.682 44.682 0 0 1 184.72 28.187 A 40.407 40.407 0 0 1 185.495 27.773 Q 187.702 26.623 189.616 26.393 A 7.861 7.861 0 0 1 190.555 26.335 Q 194.465 26.335 196.42 28.635 Q 198.375 30.935 198.835 34.615 L 199.985 35.075 Q 201.71 33.465 203.838 31.568 A 27.053 27.053 0 0 1 207.409 28.864 A 24.457 24.457 0 0 1 208.265 28.348 A 11.298 11.298 0 0 1 210.061 27.504 Q 211.141 27.115 212.165 27.042 A 6.617 6.617 0 0 1 212.635 27.025 Q 220.8 27.025 221.72 36.11 Z" id="3" vector-effect="non-scaling-stroke"/><path d="M 234.83 101.66 L 234.6 100.395 L 239.66 93.955 L 241.155 93.955 A 23.413 23.413 0 0 0 244.283 98.193 A 28.49 28.49 0 0 0 246.1 99.993 A 11.073 11.073 0 0 0 249.351 102.084 A 9.852 9.852 0 0 0 253.115 102.81 A 18.399 18.399 0 0 0 256.339 102.543 Q 258.212 102.21 259.731 101.459 A 10.461 10.461 0 0 0 260.705 100.913 A 14.54 14.54 0 0 0 264.85 97.015 A 14.01 14.01 0 0 0 265.42 96.14 Q 267.145 93.265 268.008 90.16 A 86.954 86.954 0 0 0 268.685 87.575 Q 269.071 85.999 269.33 84.64 Q 269.905 81.765 270.02 78.948 Q 270.135 76.13 270.25 73.37 L 269.56 72.795 A 153.569 153.569 0 0 1 262.538 76.879 A 181.46 181.46 0 0 1 259.095 78.718 Q 253.46 81.65 247.94 81.65 A 15.074 15.074 0 0 1 245.301 81.433 Q 243.845 81.174 242.679 80.605 A 7.713 7.713 0 0 1 241.385 79.81 Q 238.97 77.97 237.82 75.038 Q 236.67 72.105 236.325 68.828 A 63.752 63.752 0 0 1 236.031 64.935 A 51.909 51.909 0 0 1 235.98 62.675 Q 235.98 58.765 236.21 54.97 A 126.49 126.49 0 0 0 236.418 49.535 A 149.598 149.598 0 0 0 236.44 46.92 A 72.711 72.711 0 0 0 236.356 43.297 Q 236.17 39.596 235.578 37.145 Q 234.715 33.58 231.15 33.58 A 5.464 5.464 0 0 0 230.076 33.698 Q 228.881 33.939 227.298 34.673 Q 224.94 35.765 222.985 36.8 L 221.72 34.615 A 9.378 9.378 0 0 1 222.032 34.378 Q 222.698 33.891 224.135 32.948 Q 225.975 31.74 228.333 30.36 Q 230.69 28.98 233.22 27.945 A 16.666 16.666 0 0 1 235.032 27.316 Q 236.481 26.91 237.705 26.91 Q 241.385 26.91 243.168 29.325 A 9.134 9.134 0 0 1 244.941 34.511 A 11.337 11.337 0 0 1 244.95 34.96 Q 244.95 39.79 244.72 44.735 Q 244.49 49.68 244.49 54.74 A 184.002 184.002 0 0 0 244.616 57.256 Q 244.792 60.332 245.04 62.548 A 54.247 54.247 0 0 0 245.122 63.25 A 42.013 42.013 0 0 0 245.397 65.122 Q 245.723 67.027 246.158 68.253 Q 246.79 70.035 247.71 71.3 Q 248.975 72.91 250.93 73.6 Q 252.885 74.29 254.955 74.29 A 17.265 17.265 0 0 0 261.851 72.82 A 20.74 20.74 0 0 0 263.12 72.22 Q 267.145 70.15 270.365 68.31 Q 270.48 65.32 270.538 62.215 Q 270.595 59.11 270.595 56.005 Q 270.595 49.795 270.365 43.643 Q 270.135 37.49 269.675 31.51 L 278.76 27.14 L 280.14 27.6 Q 279.565 36.34 279.45 45.08 Q 279.335 53.82 279.278 61.698 A 442.889 442.889 0 0 1 279.165 69.076 Q 279.078 72.688 278.933 75.9 A 90.747 90.747 0 0 1 278.644 80.164 Q 278.314 83.713 277.725 86.365 A 34.78 34.78 0 0 1 275.485 92.367 A 25.306 25.306 0 0 1 271.343 98.498 Q 267.03 103.155 261.338 105.34 Q 255.645 107.525 249.435 107.525 A 20.246 20.246 0 0 1 243.333 106.555 A 24.432 24.432 0 0 1 241.27 105.8 A 24.808 24.808 0 0 1 238.316 104.347 Q 236.232 103.132 234.83 101.66 Z" id="4" vector-effect="non-scaling-stroke"/><path d="M 310.73 35.65 L 309.81 59.8 A 62.57 62.57 0 0 0 309.911 63.479 Q 310.133 67.238 310.845 69.69 Q 311.447 71.764 312.711 72.632 A 3.721 3.721 0 0 0 314.87 73.255 A 12.07 12.07 0 0 0 317.944 72.879 A 9.774 9.774 0 0 0 320.678 71.703 A 34.614 34.614 0 0 0 325.162 68.337 A 38.041 38.041 0 0 0 325.45 68.08 L 326.945 69.23 L 326.945 70.495 A 49.887 49.887 0 0 1 324.254 73.68 A 61.089 61.089 0 0 1 322.402 75.613 A 28.168 28.168 0 0 1 317.97 79.248 A 25.53 25.53 0 0 1 316.882 79.925 A 12.204 12.204 0 0 1 312.322 81.542 A 11.717 11.717 0 0 1 310.73 81.65 Q 308.315 81.65 306.188 80.788 A 5.469 5.469 0 0 1 304.08 79.232 Q 303.512 78.569 303.047 77.681 A 10.973 10.973 0 0 1 302.795 77.165 A 10.848 10.848 0 0 1 302.128 75.159 Q 301.627 73.053 301.546 69.994 A 46.033 46.033 0 0 1 301.53 68.77 L 302.22 43.355 A 38.264 38.264 0 0 0 302.136 40.732 Q 301.953 38.087 301.377 36.284 A 11.218 11.218 0 0 0 301.358 36.225 Q 300.812 34.552 299.69 33.937 A 3.061 3.061 0 0 0 298.195 33.58 A 7.169 7.169 0 0 0 296.769 33.736 Q 296.086 33.875 295.322 34.138 A 17.958 17.958 0 0 0 293.71 34.788 Q 291.065 35.995 288.995 37.26 L 287.5 35.19 Q 291.41 32.085 295.838 29.325 A 24.82 24.82 0 0 1 298.494 27.872 Q 301.306 26.565 303.6 26.565 Q 306.424 26.565 308.048 27.945 A 5.176 5.176 0 0 1 309.12 29.21 A 10.742 10.742 0 0 1 310.464 32.757 A 14.997 14.997 0 0 1 310.73 35.65 Z M 311.846 11.236 A 6.105 6.105 0 0 1 310.212 13.513 Q 308.2 15.295 305.44 15.295 A 6.418 6.418 0 0 1 300.786 13.401 A 7.783 7.783 0 0 1 300.725 13.34 A 6.418 6.418 0 0 1 298.77 8.711 A 7.742 7.742 0 0 1 298.77 8.625 A 5.924 5.924 0 0 1 299.216 6.289 Q 299.808 4.894 301.185 3.91 Q 303.6 2.185 306.13 2.185 A 7.09 7.09 0 0 1 308.062 2.434 A 5.114 5.114 0 0 1 310.73 4.198 Q 312.34 6.21 312.34 8.855 A 6.972 6.972 0 0 1 311.846 11.236 Z" id="5" vector-effect="non-scaling-stroke"/><path d="M 370.07 31.165 L 376.165 27.6 L 376.74 28.175 Q 376.05 40.71 376.05 53.245 Q 376.05 55.89 375.878 59.57 Q 375.705 63.25 375.935 66.7 A 22.708 22.708 0 0 0 376.221 69.126 Q 376.439 70.364 376.792 71.409 A 11.594 11.594 0 0 0 377.2 72.45 A 4.671 4.671 0 0 0 377.926 73.613 Q 378.918 74.75 380.535 74.75 Q 381.678 74.75 383.571 74.187 A 25.714 25.714 0 0 0 383.985 74.06 A 90.567 90.567 0 0 0 386.084 73.37 A 71.944 71.944 0 0 0 388.01 72.68 L 388.815 75.44 A 540.43 540.43 0 0 1 386.429 76.863 A 660.659 660.659 0 0 1 383.87 78.373 A 49.719 49.719 0 0 1 380.287 80.29 A 42.356 42.356 0 0 1 378.695 81.018 Q 376.92 81.784 375.484 82.013 A 7.379 7.379 0 0 1 374.325 82.11 Q 371.105 82.11 369.725 80.155 A 10.977 10.977 0 0 1 368.429 77.67 A 15.076 15.076 0 0 1 367.77 75.325 L 366.045 74.865 Q 361.79 77.625 357.075 79.868 Q 352.36 82.11 347.3 82.11 A 18.598 18.598 0 0 1 343.707 81.782 Q 341.187 81.285 339.25 80.04 Q 336.03 77.97 334.075 74.635 Q 332.12 71.3 331.258 67.333 Q 330.395 63.365 330.395 59.455 Q 330.395 53.36 331.948 47.61 Q 333.5 41.86 336.778 37.203 Q 340.055 32.545 345.23 29.843 Q 350.405 27.14 357.765 27.14 Q 360.25 27.14 363.248 27.979 A 30.068 30.068 0 0 1 363.918 28.175 Q 367.31 29.21 370.07 31.165 Z M 367.54 69.345 L 367.54 42.895 A 41.305 41.305 0 0 0 367.421 39.708 A 35.598 35.598 0 0 0 367.31 38.525 Q 367.08 36.455 365.7 34.96 A 13.168 13.168 0 0 0 362.407 32.405 A 14.923 14.923 0 0 0 362.135 32.258 Q 360.065 31.165 357.88 31.165 Q 351.555 31.165 346.955 35.535 A 9.1 9.1 0 0 0 345.851 36.816 Q 344.78 38.29 343.692 40.68 A 44.081 44.081 0 0 0 342.987 42.32 A 24.348 24.348 0 0 0 341.815 46.168 Q 340.925 50.141 340.755 55.648 A 80.197 80.197 0 0 0 340.745 56.005 A 31.627 31.627 0 0 0 340.729 57.025 A 32.901 32.901 0 0 0 341.32 63.193 Q 342.01 66.815 343.965 69.805 Q 345.805 72.68 348.968 73.6 Q 352.13 74.52 355.35 74.52 A 14.059 14.059 0 0 0 361.452 73.105 A 16.399 16.399 0 0 0 361.847 72.91 Q 365.01 71.3 367.54 69.345 Z" id="6" vector-effect="non-scaling-stroke"/><path d="M 411.24 78.66 L 403.19 81.42 L 401.465 80.615 Q 401.58 78.43 401.753 74.175 Q 401.925 69.92 402.098 64.803 Q 402.27 59.685 402.385 54.798 A 496.316 496.316 0 0 0 402.455 51.334 Q 402.478 49.975 402.489 48.757 A 249.897 249.897 0 0 0 402.5 46.46 A 79.546 79.546 0 0 0 402.418 42.745 Q 402.341 41.085 402.189 39.642 A 34.919 34.919 0 0 0 401.81 36.973 Q 401.12 33.235 398.245 33.235 Q 396.642 33.235 394.821 34.152 A 12.328 12.328 0 0 0 394.277 34.443 Q 392.15 35.65 389.62 37.26 L 387.665 34.73 Q 390.08 33.005 392.84 31.108 A 42.571 42.571 0 0 1 396.98 28.585 A 37.265 37.265 0 0 1 398.36 27.888 Q 401.12 26.565 403.19 26.565 Q 405.703 26.565 407.341 27.326 A 5.016 5.016 0 0 1 409.285 28.865 Q 411.01 31.165 411.47 34.385 L 412.39 35.075 A 96.262 96.262 0 0 1 419.949 30.87 A 111.905 111.905 0 0 1 422.913 29.44 Q 428.605 26.795 434.125 26.795 Q 436.655 26.795 439.013 27.485 Q 441.37 28.175 442.98 30.13 A 4.589 4.589 0 0 1 443.602 31.147 Q 444.267 32.586 444.59 35.133 A 69.98 69.98 0 0 1 444.964 38.956 A 93.467 93.467 0 0 1 445.165 43.183 A 360.439 360.439 0 0 1 445.251 47.423 A 273.117 273.117 0 0 1 445.28 51.29 Q 445.28 57.894 445.314 62.34 A 625.721 625.721 0 0 0 445.338 64.86 A 36.351 36.351 0 0 0 445.431 67.149 Q 445.598 69.369 446.052 70.774 A 6.163 6.163 0 0 0 446.488 71.818 Q 447.441 73.575 450.017 73.798 A 9.085 9.085 0 0 0 450.8 73.83 Q 452.244 73.83 454.001 73.015 A 14.661 14.661 0 0 0 455.285 72.335 A 57.036 57.036 0 0 0 459.168 69.83 A 50.659 50.659 0 0 0 460 69.23 L 461.495 69.23 L 462.53 71.645 A 50.65 50.65 0 0 1 454.851 77.915 A 56.692 56.692 0 0 1 453.617 78.718 A 25.698 25.698 0 0 1 450.317 80.502 Q 448.568 81.277 446.938 81.616 A 12.079 12.079 0 0 1 444.475 81.88 Q 441.54 81.88 439.741 80.722 A 5.492 5.492 0 0 1 437.978 78.89 A 12.434 12.434 0 0 1 436.425 74.587 A 16.679 16.679 0 0 1 436.195 71.76 L 436.77 52.095 A 56.962 56.962 0 0 0 436.562 47.064 Q 436.105 41.925 434.643 38.525 A 7.94 7.94 0 0 0 432.149 35.239 Q 429.95 33.58 426.42 33.58 A 14.605 14.605 0 0 0 420.922 34.689 A 18.811 18.811 0 0 0 418.6 35.823 A 55.461 55.461 0 0 0 413.815 38.89 A 46.486 46.486 0 0 0 411.585 40.595 Q 411.355 46.805 411.125 53.935 A 457.639 457.639 0 0 0 410.953 60.864 A 382.109 382.109 0 0 0 410.895 67.39 A 113.18 113.18 0 0 0 410.94 70.521 A 134.038 134.038 0 0 0 411.01 72.508 A 555.258 555.258 0 0 1 411.118 75.206 Q 411.171 76.625 411.225 78.205 A 936.563 936.563 0 0 1 411.24 78.66 Z" id="7" vector-effect="non-scaling-stroke"/><path d="M 500.71 36.685 L 494.385 40.94 L 493.005 40.135 A 16.032 16.032 0 0 0 492.555 37.148 Q 492.072 35.249 491.108 33.753 A 5.385 5.385 0 0 0 487.755 31.418 Q 486.815 31.181 485.682 31.166 A 11.623 11.623 0 0 0 485.53 31.165 A 10.071 10.071 0 0 0 481.968 31.776 A 9.017 9.017 0 0 0 478.803 33.81 A 8.87 8.87 0 0 0 476.106 40.106 A 11.708 11.708 0 0 0 476.1 40.48 A 6.9 6.9 0 0 0 478.089 45.337 A 10.301 10.301 0 0 0 479.262 46.403 Q 482.425 48.875 488.75 51.52 A 52.194 52.194 0 0 1 492.587 53.351 Q 494.486 54.36 495.996 55.409 A 20.688 20.688 0 0 1 498.698 57.615 A 11.975 11.975 0 0 1 500.758 60.254 A 9.215 9.215 0 0 1 501.975 64.86 A 17.35 17.35 0 0 1 501.348 69.629 A 13.792 13.792 0 0 1 498.697 74.693 Q 495.42 78.66 490.418 80.673 A 27.232 27.232 0 0 1 482.25 82.614 A 25.425 25.425 0 0 1 480.355 82.685 A 22.661 22.661 0 0 1 472.154 81.212 A 21.636 21.636 0 0 1 470.752 80.615 A 14.133 14.133 0 0 1 466.049 76.989 Q 464.621 75.341 463.45 73.14 L 469.085 64.975 L 470.695 65.09 Q 471.04 70.38 474.72 74.348 A 11.858 11.858 0 0 0 483.302 78.307 A 14.406 14.406 0 0 0 483.805 78.315 Q 487.485 78.315 490.532 75.728 A 9.487 9.487 0 0 0 492.39 73.65 A 7.365 7.365 0 0 0 493.58 69.575 A 8.59 8.59 0 0 0 493.201 66.974 A 7.191 7.191 0 0 0 491.855 64.515 A 15.258 15.258 0 0 0 488.782 61.734 A 18.18 18.18 0 0 0 487.543 60.95 Q 484.955 59.455 482.195 58.305 Q 478.63 56.81 475.295 54.855 A 19.441 19.441 0 0 1 471.781 52.25 A 16.465 16.465 0 0 1 469.89 50.14 A 10.345 10.345 0 0 1 467.863 44.661 A 13.145 13.145 0 0 1 467.82 43.585 Q 467.82 38.41 470.81 34.73 A 19.312 19.312 0 0 1 478.257 29.157 A 22.445 22.445 0 0 1 478.4 29.095 A 23.887 23.887 0 0 1 486.391 27.179 A 22.66 22.66 0 0 1 487.715 27.14 Q 490.705 27.14 493.638 28.06 A 11.912 11.912 0 0 1 497.448 30.032 A 11.212 11.212 0 0 1 498.583 31.05 A 7.226 7.226 0 0 1 500.382 34.316 A 10.647 10.647 0 0 1 500.71 36.685 Z" id="8" vector-effect="non-scaling-stroke"/><path d="M 593.515 13.34 L 586.96 20.01 L 585.35 19.895 A 30.178 30.178 0 0 0 582.972 14.832 Q 581.286 12.007 579.11 10.058 A 16.777 16.777 0 0 0 577.185 8.568 A 21.038 21.038 0 0 0 567.796 5.228 A 26.741 26.741 0 0 0 564.765 5.06 A 32.833 32.833 0 0 0 558.81 5.573 Q 555.193 6.24 552.252 7.775 A 20.135 20.135 0 0 0 551.54 8.165 Q 546.135 11.27 542.8 16.56 Q 539.465 21.85 537.97 28.233 Q 536.475 34.615 536.475 41.17 Q 536.475 46.46 538.027 51.635 A 54.255 54.255 0 0 0 539.915 56.951 A 42.307 42.307 0 0 0 541.765 60.835 A 49.665 49.665 0 0 0 543.097 63.149 Q 544.525 65.471 545.79 66.815 Q 549.794 70.819 553.591 73.165 A 28.747 28.747 0 0 0 554.932 73.945 A 18.015 18.015 0 0 0 559.302 75.596 Q 561.403 76.11 563.874 76.278 A 36.792 36.792 0 0 0 566.375 76.36 Q 572.24 76.36 577.645 74.118 Q 583.05 71.875 587.88 68.655 L 589.835 71.99 Q 583.625 76.245 576.725 79.35 Q 569.825 82.455 562.35 82.455 Q 555.565 82.455 548.895 80.673 Q 542.225 78.89 537.28 73.945 Q 531.3 67.85 528.77 59.743 Q 526.24 51.635 526.24 43.24 Q 526.24 34.96 528.482 26.91 Q 530.725 18.86 536.705 12.88 Q 543.03 6.555 551.367 3.45 Q 559.705 0.345 568.675 0.345 A 35.697 35.697 0 0 1 578.435 1.647 A 31.962 31.962 0 0 1 582.647 3.163 A 21.594 21.594 0 0 1 589.64 8.196 A 30.801 30.801 0 0 1 593.515 13.34 Z" id="10" vector-effect="non-scaling-stroke"/><path d="M 644.115 73.945 Q 647.91 69.69 649.347 64.285 Q 650.785 58.88 650.785 53.245 Q 650.785 46.805 648.6 40.825 Q 646.415 34.845 641.47 31.05 A 15.747 15.747 0 0 0 638.797 29.401 Q 636.406 28.231 633.416 27.699 A 30.873 30.873 0 0 0 628.015 27.255 Q 622.035 27.255 616.227 29.268 Q 610.42 31.28 606.395 35.765 Q 602.255 40.25 601.162 46.23 Q 600.07 52.21 600.07 58.19 Q 600.53 64.285 602.715 69.805 Q 604.9 75.325 609.672 78.833 A 15.469 15.469 0 0 0 611.754 80.119 Q 616.023 82.318 622.256 82.34 A 35.749 35.749 0 0 0 622.38 82.34 Q 628.475 82.34 634.282 80.443 Q 640.09 78.545 644.115 73.945 Z M 625.37 31.74 A 13.755 13.755 0 0 0 618.331 33.712 A 17.842 17.842 0 0 0 616.63 34.845 Q 612.49 37.95 610.88 44.39 Q 610.42 46.575 610.19 48.76 Q 609.96 50.945 609.96 53.245 A 42.966 42.966 0 0 0 610.155 57.228 A 57.15 57.15 0 0 0 610.65 61.065 Q 611.34 65.32 613.007 69.058 A 16.138 16.138 0 0 0 617.163 74.746 A 15.834 15.834 0 0 0 617.722 75.21 Q 620.77 77.625 625.485 77.625 A 17.597 17.597 0 0 0 628.644 77.358 Q 631.254 76.881 633.132 75.555 Q 636.065 73.485 637.675 70.15 A 25.919 25.919 0 0 0 639.79 63.633 A 29.267 29.267 0 0 0 639.918 62.905 A 49.23 49.23 0 0 0 640.488 57.692 A 42.09 42.09 0 0 0 640.55 55.43 A 50.503 50.503 0 0 0 640.336 50.893 A 62.826 62.826 0 0 0 639.975 47.783 Q 639.4 43.7 637.847 40.02 Q 636.295 36.34 633.247 34.04 A 10.957 10.957 0 0 0 629.128 32.15 Q 627.408 31.74 625.37 31.74 Z" id="11" vector-effect="non-scaling-stroke"/><path d="M 687.24 7.36 L 687.125 4.83 L 687.7 4.37 L 706.445 2.07 L 707.365 3.105 L 707.365 68.08 Q 707.595 70.61 708.4 72.91 A 3.777 3.777 0 0 0 709.072 74.123 Q 709.779 74.955 710.964 75.151 A 4.745 4.745 0 0 0 711.735 75.21 A 3.669 3.669 0 0 0 712.274 75.164 Q 713.159 75.03 714.692 74.513 A 34.683 34.683 0 0 0 714.84 74.463 Q 716.99 73.727 718.695 73.047 A 58.849 58.849 0 0 0 718.75 73.025 L 719.67 75.67 Q 716.335 77.97 712.252 80.443 Q 709.304 82.229 706.745 82.725 A 10.03 10.03 0 0 1 704.835 82.915 Q 701.551 82.915 699.94 80.295 A 6.835 6.835 0 0 1 699.89 80.213 Q 698.28 77.51 698.05 74.52 A 77.986 77.986 0 0 1 691.606 78.468 A 92.161 92.161 0 0 1 688.39 80.155 A 26.251 26.251 0 0 1 683.168 82.136 A 20.612 20.612 0 0 1 678.04 82.8 A 19.504 19.504 0 0 1 674.431 82.484 Q 672.305 82.084 670.588 81.176 A 11.566 11.566 0 0 1 669.818 80.73 Q 666.54 78.66 664.585 75.268 Q 662.63 71.875 661.767 67.85 Q 660.905 63.825 660.905 60.03 Q 660.905 53.935 662.572 48.185 Q 664.24 42.435 667.575 37.778 Q 670.91 33.12 676.027 30.36 Q 681.145 27.6 688.16 27.6 Q 690.69 27.6 693.047 28.06 Q 695.405 28.52 697.705 29.325 L 698.51 28.865 Q 698.51 25.76 698.452 22.31 Q 698.395 18.86 698.28 15.928 A 34.731 34.731 0 0 0 698.188 14.392 Q 698.064 12.912 697.822 11.925 A 7.626 7.626 0 0 0 697.705 11.5 A 5.026 5.026 0 0 0 697.022 9.993 A 4.209 4.209 0 0 0 695.348 8.568 A 10.627 10.627 0 0 0 692.349 7.646 A 12.678 12.678 0 0 0 691.38 7.533 A 56.214 56.214 0 0 0 688.739 7.385 A 47.327 47.327 0 0 0 687.24 7.36 Z M 698.05 69.805 L 698.51 45.08 Q 698.51 41.975 697.82 38.813 Q 697.13 35.65 694.83 33.58 A 7.042 7.042 0 0 0 692.465 32.211 Q 690.511 31.51 687.7 31.51 A 15.567 15.567 0 0 0 683.976 31.934 A 11.537 11.537 0 0 0 679.65 33.983 A 17.855 17.855 0 0 0 674.918 39.527 A 20.982 20.982 0 0 0 674.475 40.365 Q 672.52 44.275 671.715 48.818 A 53.326 53.326 0 0 0 671.033 54.162 A 43.461 43.461 0 0 0 670.91 57.385 A 27.437 27.437 0 0 0 671.879 64.517 A 31.224 31.224 0 0 0 672.175 65.55 A 16.143 16.143 0 0 0 674.553 70.39 A 14.809 14.809 0 0 0 676.373 72.45 A 9.716 9.716 0 0 0 680.645 74.755 Q 682.161 75.153 683.96 75.203 A 18.779 18.779 0 0 0 684.48 75.21 A 14.374 14.374 0 0 0 686.884 74.992 Q 689.022 74.628 691.61 73.658 Q 694.901 72.424 697.029 70.717 A 12.497 12.497 0 0 0 698.05 69.805 Z" id="12" vector-effect="non-scaling-stroke"/><path d="M 741.75 35.65 L 740.83 59.8 A 62.57 62.57 0 0 0 740.931 63.479 Q 741.153 67.238 741.865 69.69 Q 742.467 71.764 743.731 72.632 A 3.721 3.721 0 0 0 745.89 73.255 A 12.07 12.07 0 0 0 748.964 72.879 A 9.774 9.774 0 0 0 751.698 71.703 A 34.614 34.614 0 0 0 756.182 68.337 A 38.041 38.041 0 0 0 756.47 68.08 L 757.965 69.23 L 757.965 70.495 A 49.887 49.887 0 0 1 755.274 73.68 A 61.089 61.089 0 0 1 753.422 75.613 A 28.168 28.168 0 0 1 748.99 79.248 A 25.53 25.53 0 0 1 747.902 79.925 A 12.204 12.204 0 0 1 743.342 81.542 A 11.717 11.717 0 0 1 741.75 81.65 Q 739.335 81.65 737.207 80.788 A 5.469 5.469 0 0 1 735.1 79.232 Q 734.532 78.569 734.067 77.681 A 10.973 10.973 0 0 1 733.815 77.165 A 10.848 10.848 0 0 1 733.148 75.159 Q 732.647 73.053 732.566 69.994 A 46.033 46.033 0 0 1 732.55 68.77 L 733.24 43.355 A 38.264 38.264 0 0 0 733.156 40.732 Q 732.973 38.087 732.397 36.284 A 11.218 11.218 0 0 0 732.378 36.225 Q 731.832 34.552 730.71 33.937 A 3.061 3.061 0 0 0 729.215 33.58 A 7.169 7.169 0 0 0 727.789 33.736 Q 727.106 33.875 726.342 34.138 A 17.958 17.958 0 0 0 724.73 34.788 Q 722.085 35.995 720.015 37.26 L 718.52 35.19 Q 722.43 32.085 726.857 29.325 A 24.82 24.82 0 0 1 729.514 27.872 Q 732.326 26.565 734.62 26.565 Q 737.444 26.565 739.068 27.945 A 5.176 5.176 0 0 1 740.14 29.21 A 10.742 10.742 0 0 1 741.484 32.757 A 14.997 14.997 0 0 1 741.75 35.65 Z M 742.866 11.236 A 6.105 6.105 0 0 1 741.232 13.513 Q 739.22 15.295 736.46 15.295 A 6.418 6.418 0 0 1 731.806 13.401 A 7.783 7.783 0 0 1 731.745 13.34 A 6.418 6.418 0 0 1 729.79 8.711 A 7.742 7.742 0 0 1 729.79 8.625 A 5.924 5.924 0 0 1 730.236 6.289 Q 730.828 4.894 732.205 3.91 Q 734.62 2.185 737.15 2.185 A 7.09 7.09 0 0 1 739.082 2.434 A 5.114 5.114 0 0 1 741.75 4.198 Q 743.36 6.21 743.36 8.855 A 6.972 6.972 0 0 1 742.866 11.236 Z" id="13" vector-effect="non-scaling-stroke"/><path d="M 779.24 78.66 L 771.19 81.42 L 769.465 80.615 Q 769.58 78.43 769.752 74.175 Q 769.925 69.92 770.097 64.803 Q 770.27 59.685 770.385 54.798 A 496.316 496.316 0 0 0 770.455 51.334 Q 770.478 49.975 770.489 48.757 A 249.897 249.897 0 0 0 770.5 46.46 A 79.546 79.546 0 0 0 770.418 42.745 Q 770.341 41.085 770.189 39.642 A 34.919 34.919 0 0 0 769.81 36.973 Q 769.12 33.235 766.245 33.235 Q 764.642 33.235 762.821 34.152 A 12.328 12.328 0 0 0 762.277 34.443 Q 760.15 35.65 757.62 37.26 L 755.665 34.73 Q 758.08 33.005 760.84 31.108 A 42.571 42.571 0 0 1 764.98 28.585 A 37.265 37.265 0 0 1 766.36 27.888 Q 769.12 26.565 771.19 26.565 Q 773.703 26.565 775.341 27.326 A 5.016 5.016 0 0 1 777.285 28.865 Q 779.01 31.165 779.47 34.385 L 780.39 35.075 A 96.262 96.262 0 0 1 787.949 30.87 A 111.905 111.905 0 0 1 790.913 29.44 Q 796.605 26.795 802.125 26.795 Q 804.655 26.795 807.012 27.485 Q 809.37 28.175 810.98 30.13 A 4.589 4.589 0 0 1 811.602 31.147 Q 812.267 32.586 812.59 35.133 A 69.98 69.98 0 0 1 812.964 38.956 A 93.467 93.467 0 0 1 813.165 43.183 A 360.439 360.439 0 0 1 813.251 47.423 A 273.117 273.117 0 0 1 813.28 51.29 Q 813.28 57.894 813.314 62.34 A 625.721 625.721 0 0 0 813.338 64.86 A 36.351 36.351 0 0 0 813.431 67.149 Q 813.598 69.369 814.052 70.774 A 6.163 6.163 0 0 0 814.488 71.818 Q 815.441 73.575 818.017 73.798 A 9.085 9.085 0 0 0 818.8 73.83 Q 820.244 73.83 822.001 73.015 A 14.661 14.661 0 0 0 823.285 72.335 A 57.036 57.036 0 0 0 827.168 69.83 A 50.659 50.659 0 0 0 828 69.23 L 829.495 69.23 L 830.53 71.645 A 50.65 50.65 0 0 1 822.851 77.915 A 56.692 56.692 0 0 1 821.617 78.718 A 25.698 25.698 0 0 1 818.317 80.502 Q 816.568 81.277 814.938 81.616 A 12.079 12.079 0 0 1 812.475 81.88 Q 809.54 81.88 807.741 80.722 A 5.492 5.492 0 0 1 805.978 78.89 A 12.434 12.434 0 0 1 804.425 74.587 A 16.679 16.679 0 0 1 804.195 71.76 L 804.77 52.095 A 56.962 56.962 0 0 0 804.562 47.064 Q 804.105 41.925 802.642 38.525 A 7.94 7.94 0 0 0 800.149 35.239 Q 797.95 33.58 794.42 33.58 A 14.605 14.605 0 0 0 788.922 34.689 A 18.811 18.811 0 0 0 786.6 35.823 A 55.461 55.461 0 0 0 781.815 38.89 A 46.486 46.486 0 0 0 779.585 40.595 Q 779.355 46.805 779.125 53.935 A 457.639 457.639 0 0 0 778.953 60.864 A 382.109 382.109 0 0 0 778.895 67.39 A 113.18 113.18 0 0 0 778.94 70.521 A 134.038 134.038 0 0 0 779.01 72.508 A 555.258 555.258 0 0 1 779.118 75.206 Q 779.171 76.625 779.225 78.205 A 936.563 936.563 0 0 1 779.24 78.66 Z" id="14" vector-effect="non-scaling-stroke"/><path d="M 871.355 75.555 L 870.32 74.75 Q 865.835 77.28 860.947 79.638 Q 856.06 81.995 850.655 81.995 Q 845.94 81.995 842.145 79.178 A 17.432 17.432 0 0 1 837.772 74.379 A 22.755 22.755 0 0 1 836.165 71.3 A 26.039 26.039 0 0 1 834.369 64.912 A 35.121 35.121 0 0 1 833.98 59.57 A 50.162 50.162 0 0 1 834.559 51.748 Q 835.405 46.392 837.487 42.09 Q 840.995 34.845 846.975 31.05 Q 852.955 27.255 860.315 27.255 Q 863.88 27.255 867.387 28.118 Q 870.895 28.98 873.77 31.165 L 879.635 27.83 L 881.245 28.52 Q 881.015 32.43 880.842 36.283 Q 880.67 40.135 880.497 44.85 A 306.4 306.4 0 0 0 880.384 48.621 Q 880.303 51.959 880.267 55.948 A 1254.532 1254.532 0 0 0 880.232 61.098 Q 880.221 63.396 880.216 65.947 A 2435.681 2435.681 0 0 0 880.21 71.3 A 73.378 73.378 0 0 1 880.171 73.592 Q 880.084 76.342 879.807 80.098 Q 879.405 85.56 877.68 90.62 Q 876.3 94.415 873.655 97.233 Q 871.01 100.05 869.285 101.315 A 33.067 33.067 0 0 1 864.609 104.323 A 26.166 26.166 0 0 1 860.43 106.088 Q 855.945 107.525 850.655 107.525 A 24.446 24.446 0 0 1 844.169 106.625 A 28.123 28.123 0 0 1 842.95 106.26 A 16.998 16.998 0 0 1 839.59 104.722 Q 837.245 103.346 834.785 101.085 L 840.42 93.955 L 842.03 93.955 A 14.524 14.524 0 0 0 843.437 96.202 A 19.491 19.491 0 0 0 845.02 98.038 A 21.982 21.982 0 0 0 848.661 101.075 A 20.249 20.249 0 0 0 849.217 101.43 A 10.591 10.591 0 0 0 850.943 102.298 Q 852.269 102.81 853.53 102.81 Q 859.625 102.81 863.477 99.13 A 19.855 19.855 0 0 0 867.363 93.868 A 27.376 27.376 0 0 0 869.228 89.24 A 48.233 48.233 0 0 0 870.948 80.984 A 59.97 59.97 0 0 0 871.355 75.555 Z M 871.355 69.345 L 871.355 38.985 A 8.44 8.44 0 0 0 870.821 36.393 A 6.606 6.606 0 0 0 867.962 33.063 Q 864.8 31.165 861.12 31.165 Q 856.06 31.165 852.725 33.753 A 18.057 18.057 0 0 0 847.814 39.67 A 21.188 21.188 0 0 0 847.435 40.423 Q 845.48 44.505 844.675 48.99 A 52.734 52.734 0 0 0 844.024 53.854 A 41.894 41.894 0 0 0 843.87 57.385 A 21.939 21.939 0 0 0 844.356 62.102 A 17.159 17.159 0 0 0 845.94 66.47 Q 848.01 70.38 851.057 72.565 A 13.711 13.711 0 0 0 853.272 73.875 Q 854.659 74.518 856.009 74.689 A 7.735 7.735 0 0 0 856.98 74.75 A 16.721 16.721 0 0 0 860.871 74.275 A 20.113 20.113 0 0 0 862.442 73.83 A 34.945 34.945 0 0 0 866.599 72.182 A 30.93 30.93 0 0 0 867.675 71.645 A 36.877 36.877 0 0 0 869.072 70.877 Q 870.391 70.111 871.237 69.44 A 10.141 10.141 0 0 0 871.355 69.345 Z" id="15" vector-effect="non-scaling-stroke"/><path d="M 956.8 11.04 L 949.555 17.48 L 948.06 17.135 A 25.448 25.448 0 0 0 946.4 12.522 A 18.597 18.597 0 0 0 943.23 7.82 A 10.966 10.966 0 0 0 937.209 4.553 A 16.145 16.145 0 0 0 934.03 4.255 Q 928.51 4.255 924.887 8.223 A 13.73 13.73 0 0 0 921.265 17.803 A 17.289 17.289 0 0 0 921.265 17.825 A 13.366 13.366 0 0 0 922.063 22.5 A 12.17 12.17 0 0 0 923.795 25.645 A 22.968 22.968 0 0 0 927.98 29.85 A 28.263 28.263 0 0 0 930.35 31.51 Q 934.375 34.04 938.86 35.995 Q 947.945 39.905 952.545 44.85 Q 957.145 49.795 957.145 56.695 Q 957.145 62.33 954.327 67.103 Q 951.51 71.875 946.91 75.268 Q 942.31 78.66 936.79 80.558 A 33.935 33.935 0 0 1 926.44 82.448 A 32.123 32.123 0 0 1 925.75 82.455 Q 919.77 82.455 914.48 79.753 A 15.297 15.297 0 0 1 907.922 73.232 A 20.742 20.742 0 0 1 906.775 70.725 L 913.33 63.135 L 915.285 63.25 Q 917.125 69.23 920.805 73.198 Q 924.485 77.165 930.58 77.165 Q 935.065 77.165 938.802 74.923 Q 942.54 72.68 944.782 68.885 A 16.221 16.221 0 0 0 946.97 61.744 A 19.825 19.825 0 0 0 947.025 60.26 A 10.691 10.691 0 0 0 945.869 55.479 A 13.722 13.722 0 0 0 945.013 53.993 A 21.279 21.279 0 0 0 941.131 49.617 A 25.142 25.142 0 0 0 939.78 48.53 A 33.468 33.468 0 0 0 934.183 45.11 A 30.534 30.534 0 0 0 933.11 44.62 A 98.045 98.045 0 0 1 927.677 42.077 Q 924.221 40.32 921.495 38.525 A 26.731 26.731 0 0 1 917.821 35.643 A 19.456 19.456 0 0 1 914.423 31.453 A 16.356 16.356 0 0 1 912.454 26.153 A 22.676 22.676 0 0 1 912.065 21.85 A 24.713 24.713 0 0 1 912.644 16.362 A 17.784 17.784 0 0 1 915.572 9.775 Q 919.08 4.945 924.657 2.473 Q 930.235 0 936.445 0 Q 940.7 0 944.38 0.748 Q 948.06 1.495 951.165 3.853 Q 954.27 6.21 956.8 11.04 Z" id="17" vector-effect="non-scaling-stroke"/><path d="M 1009.47 67.39 L 1010.505 67.62 L 1011.77 69.69 Q 1006.48 74.98 1000.097 78.948 Q 993.715 82.915 986.01 82.915 Q 981.204 82.915 977.802 81.701 A 13.781 13.781 0 0 1 974.97 80.328 Q 970.945 77.74 969.047 73.6 Q 967.15 69.46 966.632 64.745 A 86.66 86.66 0 0 1 966.166 58.48 A 73.617 73.617 0 0 1 966.115 55.775 Q 966.115 47.15 969.852 40.423 Q 973.59 33.695 980.145 29.9 A 28.241 28.241 0 0 1 991.328 26.314 A 35.339 35.339 0 0 1 995.21 26.105 A 16.439 16.439 0 0 1 999.456 26.627 A 12.344 12.344 0 0 1 1004.467 29.268 Q 1008.09 32.43 1008.55 37.375 L 1002.34 43.47 L 1000.385 42.78 Q 999.795 38.563 998.215 35.707 A 12.547 12.547 0 0 0 996.935 33.81 A 9.795 9.795 0 0 0 994.853 31.88 A 7.43 7.43 0 0 0 990.61 30.59 A 11.744 11.744 0 0 0 985.837 31.543 A 11.307 11.307 0 0 0 982.445 33.868 A 19.868 19.868 0 0 0 978.483 39.47 A 24.704 24.704 0 0 0 977.385 42.148 Q 975.66 47.15 975.66 52.21 A 43.661 43.661 0 0 0 976.016 57.678 A 51.19 51.19 0 0 0 976.35 59.915 Q 977.04 63.94 978.765 67.448 Q 980.49 70.955 983.652 73.14 Q 986.48 75.094 990.824 75.301 A 22.086 22.086 0 0 0 991.875 75.325 Q 996.935 75.325 1001.305 72.968 Q 1005.675 70.61 1009.47 67.39 Z" id="18" vector-effect="non-scaling-stroke"/><path d="M 1080.655 68.425 L 1082.15 69.575 L 1082.15 70.84 Q 1078.355 74.865 1073.812 78.373 A 17.396 17.396 0 0 1 1069.264 80.948 A 14.673 14.673 0 0 1 1064.095 81.88 A 7.055 7.055 0 0 1 1061.593 81.459 Q 1059.758 80.768 1058.636 78.943 A 8.198 8.198 0 0 1 1058.288 78.315 A 17.1 17.1 0 0 1 1056.513 71.057 A 19.995 19.995 0 0 1 1056.505 70.495 A 199.986 199.986 0 0 1 1056.527 67.613 Q 1056.555 65.654 1056.62 63.423 Q 1056.735 59.455 1056.85 55.833 A 338.73 338.73 0 0 0 1056.9 54.119 Q 1056.945 52.451 1056.959 51.196 A 95.794 95.794 0 0 0 1056.965 50.14 A 48.092 48.092 0 0 0 1056.759 45.584 A 37.249 37.249 0 0 0 1056.275 42.148 Q 1055.585 38.525 1053.457 36.398 Q 1051.696 34.636 1048.475 34.333 A 14.965 14.965 0 0 0 1047.075 34.27 Q 1042.36 34.27 1038.22 36.513 A 73.162 73.162 0 0 0 1033.388 39.365 A 59.81 59.81 0 0 0 1030.745 41.17 Q 1030.745 50.6 1030.63 60.088 Q 1030.515 69.575 1030.515 78.89 L 1022.235 81.42 L 1021.545 80.27 Q 1022.12 68.885 1022.58 57.5 Q 1023.04 46.115 1023.155 34.73 L 1023.155 19.493 Q 1023.155 13.417 1021.144 10.308 A 8.003 8.003 0 0 0 1020.855 9.89 Q 1020.05 8.855 1017.175 8.108 Q 1014.491 7.41 1012.308 6.963 A 66.761 66.761 0 0 0 1012 6.9 L 1012 4.83 L 1012.575 4.37 L 1030.745 2.415 L 1031.435 3.22 A 372.387 372.387 0 0 0 1031.097 13.748 A 438.463 438.463 0 0 0 1031.033 18.803 A 2311.122 2311.122 0 0 0 1030.975 34.96 L 1031.895 35.88 A 117.242 117.242 0 0 1 1039.938 31.384 A 134.584 134.584 0 0 1 1042.82 29.958 Q 1048.685 27.14 1055.01 27.14 A 5.656 5.656 0 0 1 1055.852 27.211 Q 1056.958 27.379 1058.575 27.945 A 10.493 10.493 0 0 1 1061.581 29.562 A 9.734 9.734 0 0 1 1062.485 30.36 A 7.235 7.235 0 0 1 1064.304 33.079 Q 1064.77 34.247 1064.99 35.715 A 19.119 19.119 0 0 1 1065.188 38.353 Q 1065.245 43.93 1065.245 50.83 L 1065.245 59.34 A 128.427 128.427 0 0 1 1065.237 60.731 Q 1065.23 61.351 1065.218 62.038 A 247.672 247.672 0 0 1 1065.187 63.48 A 28.888 28.888 0 0 0 1065.179 64.168 A 27.114 27.114 0 0 0 1065.475 68.195 Q 1065.82 70.495 1066.913 72.048 A 3.526 3.526 0 0 0 1069.168 73.491 A 5.572 5.572 0 0 0 1070.305 73.6 Q 1073.64 73.6 1076.342 71.76 Q 1079.045 69.92 1080.655 68.425 Z" id="19" vector-effect="non-scaling-stroke"/><path d="M 1130.565 73.945 Q 1134.36 69.69 1135.797 64.285 Q 1137.235 58.88 1137.235 53.245 Q 1137.235 46.805 1135.05 40.825 Q 1132.865 34.845 1127.92 31.05 A 15.747 15.747 0 0 0 1125.247 29.401 Q 1122.856 28.231 1119.866 27.699 A 30.873 30.873 0 0 0 1114.465 27.255 Q 1108.485 27.255 1102.677 29.268 Q 1096.87 31.28 1092.845 35.765 Q 1088.705 40.25 1087.612 46.23 Q 1086.52 52.21 1086.52 58.19 Q 1086.98 64.285 1089.165 69.805 Q 1091.35 75.325 1096.122 78.833 A 15.469 15.469 0 0 0 1098.204 80.119 Q 1102.473 82.318 1108.706 82.34 A 35.749 35.749 0 0 0 1108.83 82.34 Q 1114.925 82.34 1120.732 80.443 Q 1126.54 78.545 1130.565 73.945 Z M 1111.82 31.74 A 13.755 13.755 0 0 0 1104.781 33.712 A 17.842 17.842 0 0 0 1103.08 34.845 Q 1098.94 37.95 1097.33 44.39 Q 1096.87 46.575 1096.64 48.76 Q 1096.41 50.945 1096.41 53.245 A 42.966 42.966 0 0 0 1096.605 57.228 A 57.15 57.15 0 0 0 1097.1 61.065 Q 1097.79 65.32 1099.457 69.058 A 16.138 16.138 0 0 0 1103.613 74.746 A 15.834 15.834 0 0 0 1104.172 75.21 Q 1107.22 77.625 1111.935 77.625 A 17.597 17.597 0 0 0 1115.094 77.358 Q 1117.704 76.881 1119.582 75.555 Q 1122.515 73.485 1124.125 70.15 A 25.919 25.919 0 0 0 1126.24 63.633 A 29.267 29.267 0 0 0 1126.368 62.905 A 49.23 49.23 0 0 0 1126.938 57.692 A 42.09 42.09 0 0 0 1127 55.43 A 50.503 50.503 0 0 0 1126.786 50.893 A 62.826 62.826 0 0 0 1126.425 47.783 Q 1125.85 43.7 1124.297 40.02 Q 1122.745 36.34 1119.697 34.04 A 10.957 10.957 0 0 0 1115.578 32.15 Q 1113.858 31.74 1111.82 31.74 Z" id="20" vector-effect="non-scaling-stroke"/><path d="M 1192.32 73.945 Q 1196.115 69.69 1197.552 64.285 Q 1198.99 58.88 1198.99 53.245 Q 1198.99 46.805 1196.805 40.825 Q 1194.62 34.845 1189.675 31.05 A 15.747 15.747 0 0 0 1187.002 29.401 Q 1184.611 28.231 1181.621 27.699 A 30.873 30.873 0 0 0 1176.22 27.255 Q 1170.24 27.255 1164.433 29.268 Q 1158.625 31.28 1154.6 35.765 Q 1150.46 40.25 1149.367 46.23 Q 1148.275 52.21 1148.275 58.19 Q 1148.735 64.285 1150.92 69.805 Q 1153.105 75.325 1157.877 78.833 A 15.469 15.469 0 0 0 1159.959 80.119 Q 1164.228 82.318 1170.461 82.34 A 35.749 35.749 0 0 0 1170.585 82.34 Q 1176.68 82.34 1182.488 80.443 Q 1188.295 78.545 1192.32 73.945 Z M 1173.575 31.74 A 13.755 13.755 0 0 0 1166.536 33.712 A 17.842 17.842 0 0 0 1164.835 34.845 Q 1160.695 37.95 1159.085 44.39 Q 1158.625 46.575 1158.395 48.76 Q 1158.165 50.945 1158.165 53.245 A 42.966 42.966 0 0 0 1158.36 57.228 A 57.15 57.15 0 0 0 1158.855 61.065 Q 1159.545 65.32 1161.212 69.058 A 16.138 16.138 0 0 0 1165.368 74.746 A 15.834 15.834 0 0 0 1165.927 75.21 Q 1168.975 77.625 1173.69 77.625 A 17.597 17.597 0 0 0 1176.849 77.358 Q 1179.459 76.881 1181.337 75.555 Q 1184.27 73.485 1185.88 70.15 A 25.919 25.919 0 0 0 1187.995 63.633 A 29.267 29.267 0 0 0 1188.123 62.905 A 49.23 49.23 0 0 0 1188.693 57.692 A 42.09 42.09 0 0 0 1188.755 55.43 A 50.503 50.503 0 0 0 1188.541 50.893 A 62.826 62.826 0 0 0 1188.18 47.783 Q 1187.605 43.7 1186.052 40.02 Q 1184.5 36.34 1181.452 34.04 A 10.957 10.957 0 0 0 1177.333 32.15 Q 1175.613 31.74 1173.575 31.74 Z" id="21" vector-effect="non-scaling-stroke"/><path d="M 1237.745 67.85 L 1239.01 67.85 L 1240.275 69.23 A 49.419 49.419 0 0 1 1237.261 73.341 A 58.459 58.459 0 0 1 1235.675 75.21 A 24.645 24.645 0 0 1 1230.804 79.477 A 22.767 22.767 0 0 1 1229.81 80.098 Q 1226.59 81.995 1222.795 81.995 A 10.537 10.537 0 0 1 1220.185 81.685 A 8.46 8.46 0 0 1 1217.793 80.673 A 6.177 6.177 0 0 1 1216.092 79.062 Q 1215.534 78.306 1215.083 77.313 A 14.387 14.387 0 0 1 1214.515 75.843 A 18.262 18.262 0 0 1 1213.909 73.353 Q 1213.365 70.287 1213.365 65.78 L 1214.17 22.31 Q 1214.17 19.435 1214.113 16.158 A 41.739 41.739 0 0 0 1214.025 14.047 Q 1213.957 13.049 1213.84 12.198 A 17.292 17.292 0 0 0 1213.595 10.81 A 3.49 3.49 0 0 0 1213.146 9.605 Q 1212.606 8.734 1211.525 8.338 A 11.973 11.973 0 0 0 1209.377 7.779 A 15.654 15.654 0 0 0 1207.615 7.59 Q 1205.43 7.475 1203.59 7.36 L 1203.59 4.715 L 1204.28 4.14 L 1223.255 1.84 L 1223.945 2.645 Q 1223.6 14.72 1222.968 26.795 Q 1222.335 38.87 1222.335 50.945 Q 1222.335 56.58 1222.278 61.64 Q 1222.22 66.7 1223.313 69.863 A 5.401 5.401 0 0 0 1224.313 71.657 Q 1225.289 72.785 1226.898 73.126 A 6.797 6.797 0 0 0 1227.855 73.255 Q 1230.73 73.255 1233.145 71.473 Q 1235.56 69.69 1237.745 67.85 Z" id="22" vector-effect="non-scaling-stroke"/></g></svg>