<svg width="1287.8" height="138.584" viewBox="0 0 1287.8 138.584" xmlns="http://www.w3.org/2000/svg"><g id="svgGroup" stroke-linecap="round" fill-rule="nonzero" font-size="9pt" stroke="#000" stroke-width="2mm" fill="#000" style="stroke:#000;stroke-width:2mm;fill:#000"><path d="M 57.949 64.014 L 11.343 53.569 Q 9.321 53.12 7.412 51.66 A 17.285 17.285 0 0 1 6.056 50.601 Q 4.724 49.44 4.227 48.386 A 2.846 2.846 0 0 1 3.931 47.168 A 11.601 11.601 0 0 1 6.349 40.224 Q 9.007 36.585 14.585 33.333 A 46.967 46.967 0 0 1 14.937 33.13 Q 23.749 28.153 36.889 24.954 A 155.308 155.308 0 0 1 47.393 22.798 A 133.191 133.191 0 0 1 49.547 22.447 Q 52.559 21.984 54.243 21.899 A 5.176 5.176 0 0 0 54.68 22.021 Q 55.312 22.171 56.321 22.292 A 26.946 26.946 0 0 1 59.002 22.756 A 29.467 29.467 0 0 1 59.185 22.798 Q 62.53 23.553 62.142 25.553 A 2.569 2.569 0 0 1 62.104 25.718 Q 62.104 28.867 52.176 30.946 A 88.717 88.717 0 0 1 47.505 31.782 A 486.613 486.613 0 0 0 40.929 32.803 Q 30.801 34.453 26.224 35.752 A 21.748 21.748 0 0 0 23.977 36.499 A 37.806 37.806 0 0 0 21.437 37.642 Q 18.988 38.864 17.561 40.13 A 9.56 9.56 0 0 0 17.239 40.43 Q 15.161 42.451 15.049 45.259 Q 15.049 45.82 17.632 46.494 Q 19.408 46.957 21.661 47.553 A 2033.765 2033.765 0 0 1 23.809 48.123 Q 27.402 49.077 33.13 50.649 Q 47.056 54.468 67.271 60.308 Q 68.302 62.577 68.386 64.563 A 8.272 8.272 0 0 1 68.394 64.912 Q 68.394 69.617 64.042 74.042 A 28.058 28.058 0 0 1 61.431 76.367 A 47.352 47.352 0 0 1 54.364 80.901 Q 48.13 84.211 39.644 86.812 Q 29.079 89.991 22.448 90.267 A 29.463 29.463 0 0 1 21.226 90.293 A 29.627 29.627 0 0 1 10.332 88.271 A 59.534 59.534 0 0 1 7.39 87.035 Q 4.369 85.661 2.583 84.341 A 9.643 9.643 0 0 1 1.393 83.315 Q 0.827 82.732 0.491 82.134 A 3.595 3.595 0 0 1 0 80.354 A 4.708 4.708 0 0 1 1.105 77.328 A 6.655 6.655 0 0 1 1.741 76.648 Q 3.481 75.02 4.436 74.402 A 20.552 20.552 0 0 0 4.875 74.111 Q 5.468 73.704 5.722 73.453 A 1.951 1.951 0 0 0 5.728 73.447 Q 6.228 82.553 16.803 83.546 A 29.344 29.344 0 0 0 19.541 83.667 A 41.512 41.512 0 0 0 28.417 82.633 Q 32.642 81.706 37.313 79.948 A 92.63 92.63 0 0 0 43.911 77.153 A 64.723 64.723 0 0 0 48.829 74.68 Q 54.715 71.371 57.163 67.944 A 9.284 9.284 0 0 0 57.654 67.246 Q 58.128 66.496 58.247 65.906 A 1.911 1.911 0 0 0 58.286 65.53 Q 58.286 64.857 58.119 64.38 A 1.985 1.985 0 0 0 57.949 64.014 Z M 1000.073 64.014 L 953.467 53.569 Q 951.445 53.12 949.536 51.66 A 17.285 17.285 0 0 1 948.18 50.601 Q 946.848 49.44 946.351 48.386 A 2.846 2.846 0 0 1 946.055 47.168 A 11.601 11.601 0 0 1 948.473 40.224 Q 951.131 36.585 956.709 33.333 A 46.967 46.967 0 0 1 957.061 33.13 Q 965.873 28.153 979.013 24.954 A 155.308 155.308 0 0 1 989.517 22.798 A 133.191 133.191 0 0 1 991.671 22.447 Q 994.683 21.984 996.367 21.899 A 5.176 5.176 0 0 0 996.804 22.021 Q 997.436 22.171 998.445 22.292 A 26.946 26.946 0 0 1 1001.126 22.756 A 29.467 29.467 0 0 1 1001.309 22.798 Q 1004.654 23.553 1004.266 25.553 A 2.569 2.569 0 0 1 1004.229 25.718 Q 1004.229 28.867 994.3 30.946 A 88.717 88.717 0 0 1 989.629 31.782 A 486.613 486.613 0 0 0 983.053 32.803 Q 972.925 34.453 968.348 35.752 A 21.748 21.748 0 0 0 966.101 36.499 A 37.806 37.806 0 0 0 963.561 37.642 Q 961.112 38.864 959.685 40.13 A 9.56 9.56 0 0 0 959.363 40.43 Q 957.285 42.451 957.173 45.259 Q 957.173 45.82 959.756 46.494 Q 961.532 46.957 963.785 47.553 A 2033.765 2033.765 0 0 1 965.933 48.123 Q 969.526 49.077 975.254 50.649 Q 989.18 54.468 1009.395 60.308 Q 1010.426 62.577 1010.51 64.563 A 8.272 8.272 0 0 1 1010.518 64.912 Q 1010.518 69.617 1006.166 74.042 A 28.058 28.058 0 0 1 1003.555 76.367 A 47.352 47.352 0 0 1 996.488 80.901 Q 990.254 84.211 981.768 86.812 Q 971.203 89.991 964.572 90.267 A 29.463 29.463 0 0 1 963.35 90.293 A 29.627 29.627 0 0 1 952.456 88.271 A 59.534 59.534 0 0 1 949.514 87.035 Q 946.493 85.661 944.707 84.341 A 9.643 9.643 0 0 1 943.517 83.315 Q 942.951 82.732 942.615 82.134 A 3.595 3.595 0 0 1 942.124 80.354 A 4.708 4.708 0 0 1 943.229 77.328 A 6.655 6.655 0 0 1 943.865 76.648 Q 945.605 75.02 946.56 74.402 A 20.552 20.552 0 0 0 946.999 74.111 Q 947.592 73.704 947.846 73.453 A 1.951 1.951 0 0 0 947.852 73.447 Q 948.352 82.553 958.927 83.546 A 29.344 29.344 0 0 0 961.665 83.667 A 41.512 41.512 0 0 0 970.541 82.633 Q 974.766 81.706 979.437 79.948 A 92.63 92.63 0 0 0 986.035 77.153 A 64.723 64.723 0 0 0 990.953 74.68 Q 996.839 71.371 999.287 67.944 A 9.284 9.284 0 0 0 999.778 67.246 Q 1000.252 66.496 1000.371 65.906 A 1.911 1.911 0 0 0 1000.41 65.53 Q 1000.41 64.857 1000.243 64.38 A 1.985 1.985 0 0 0 1000.073 64.014 Z M 870.586 138.247 L 869.014 138.135 A 57.255 57.255 0 0 0 864.627 138.31 A 69.79 69.79 0 0 0 861.826 138.584 L 857.559 138.584 A 28.665 28.665 0 0 1 853.632 138.332 Q 849.627 137.777 847.002 136.001 A 4.355 4.355 0 0 1 845.04 132.845 A 6.348 6.348 0 0 1 844.98 131.958 L 870.811 130.723 A 16.375 16.375 0 0 0 875.719 129.905 Q 882.715 127.476 882.715 117.92 L 882.715 116.404 L 882.715 111.743 L 883.276 75.581 Q 883.276 74.298 883.226 73.32 A 22.872 22.872 0 0 0 883.164 72.437 A 85.995 85.995 0 0 1 872.481 81.011 Q 859.97 89.395 848.125 89.395 A 38.057 38.057 0 0 1 845.205 89.282 A 12.437 12.437 0 0 1 842.366 88.987 Q 837.681 87.885 837.681 82.656 A 25.139 25.139 0 0 1 838.456 77.59 Q 839.219 74.575 840.713 71.257 A 60.226 60.226 0 0 1 847.273 60.147 A 67.195 67.195 0 0 1 847.957 59.241 A 62.863 62.863 0 0 1 858.008 48.853 Q 864.25 43.746 870.199 42.325 A 19.504 19.504 0 0 1 874.741 41.777 A 16.031 16.031 0 0 1 886.671 47.054 A 26.898 26.898 0 0 1 890.239 51.772 Q 891.894 76.387 892.025 87.858 A 164.543 164.543 0 0 1 892.036 89.731 A 651.758 651.758 0 0 1 892.015 95.094 Q 891.961 101.681 891.767 106.588 A 214.815 214.815 0 0 1 891.699 108.149 A 100.347 100.347 0 0 1 891.079 115.641 A 77.655 77.655 0 0 1 890.183 121.289 A 50.438 50.438 0 0 1 889.286 125.089 Q 888.788 126.868 888.2 128.347 A 21.282 21.282 0 0 1 887.095 130.723 Q 885.186 134.204 882.603 135.776 A 15.715 15.715 0 0 1 878.912 137.282 Q 877.062 137.795 874.828 138.035 A 39.76 39.76 0 0 1 870.586 138.247 Z M 877.324 49.976 A 7.105 7.105 0 0 0 876.325 49.729 Q 875.184 49.526 873.562 49.526 Q 871.147 49.526 867.329 51.548 Q 863.511 53.569 860.029 56.77 A 56.7 56.7 0 0 0 853.516 63.901 Q 847.828 71.312 846.505 76.409 A 11.494 11.494 0 0 0 846.104 79.287 A 5.08 5.08 0 0 0 846.202 80.322 Q 846.419 81.365 847.114 81.982 A 3.216 3.216 0 0 0 847.999 82.319 Q 848.49 82.432 849.08 82.432 Q 850.259 82.432 852.505 82.039 Q 854.751 81.646 858.625 80.017 Q 862.5 78.389 866.655 75.806 A 48.845 48.845 0 0 0 873.702 70.518 A 45.063 45.063 0 0 0 874.18 70.078 A 35.328 35.328 0 0 0 877.958 66.09 Q 882.041 60.977 882.041 56.04 A 5.725 5.725 0 0 0 879.631 51.247 Q 878.669 50.52 877.324 49.976 Z M 613.745 27.852 A 27.468 27.468 0 0 0 607.802 23.333 A 20.809 20.809 0 0 0 597.573 20.664 A 22.989 22.989 0 0 0 586.341 23.673 A 32.147 32.147 0 0 0 581.401 27.065 A 41.318 41.318 0 0 0 567.932 47.929 A 47.72 47.72 0 0 0 567.925 47.954 A 44.703 44.703 0 0 0 567.214 50.678 Q 566.901 52.07 566.741 53.282 A 17.815 17.815 0 0 0 566.577 55.591 A 68.922 68.922 0 0 0 566.591 57.023 Q 566.633 59.044 566.802 60.308 A 26.182 26.182 0 0 0 567.732 67.487 A 18.894 18.894 0 0 0 574.326 77.378 A 25.401 25.401 0 0 0 584.706 82.107 A 36.371 36.371 0 0 0 592.407 82.881 Q 607.456 81.646 621.27 71.313 Q 625.088 68.394 629.355 65.698 A 11.832 11.832 0 0 1 632.15 66.042 A 13.394 13.394 0 0 1 632.556 66.147 A 2.007 2.007 0 0 1 633.999 67.481 Q 634.185 68.009 634.185 68.73 A 198.142 198.142 0 0 1 627.576 74.24 Q 621.286 79.24 616.365 82.121 A 53.949 53.949 0 0 1 615.43 82.656 A 78.369 78.369 0 0 1 606.02 87.004 Q 597.342 90.293 589.824 90.293 L 588.364 90.293 A 33.379 33.379 0 0 1 576.134 88.106 A 30.766 30.766 0 0 1 567.026 82.544 A 27.538 27.538 0 0 1 560.101 73.653 A 26.389 26.389 0 0 1 557.593 62.104 A 47.74 47.74 0 0 1 560.906 44.473 A 48.928 48.928 0 0 1 570.002 29.592 Q 575.786 23.135 583.704 19.316 A 38.656 38.656 0 0 1 600.718 15.498 A 44.399 44.399 0 0 1 603.85 15.6 Q 608.729 15.947 610.635 17.47 A 4.083 4.083 0 0 1 610.825 17.632 Q 613.318 19.837 613.683 25.728 A 34.459 34.459 0 0 1 613.745 27.852 Z M 315.688 41.44 L 281.548 132.52 A 17.348 17.348 0 0 1 280.473 134.576 Q 278.477 137.798 275.933 137.798 Q 274.526 137.798 273.793 136.674 A 3.304 3.304 0 0 1 273.63 136.394 A 3.408 3.408 0 0 1 273.251 134.797 Q 273.251 133.998 273.574 133.081 A 192.519 192.519 0 0 1 276.155 123.383 Q 277.602 118.438 279.438 112.973 A 343.697 343.697 0 0 1 280.706 109.272 Q 284.513 98.355 286.259 93.284 A 829.542 829.542 0 0 0 286.938 91.304 A 43.601 43.601 0 0 1 284.771 88.939 Q 280.968 84.517 274.585 75.581 A 1081.127 1081.127 0 0 1 270.531 69.859 Q 257.572 51.43 257.296 49.06 A 0.829 0.829 0 0 1 257.29 48.965 Q 257.29 48.853 257.402 48.74 L 261.67 44.473 Q 268.549 50.829 278.67 64.073 A 417.14 417.14 0 0 1 284.805 72.324 A 255.087 255.087 0 0 1 286.51 74.697 Q 288.932 78.108 290.532 80.635 A 142.713 142.713 0 0 0 292.159 77.279 Q 292.777 75.956 293.297 74.76 A 70.298 70.298 0 0 0 294.238 72.493 Q 295.444 69.429 296.245 67.443 A 292.457 292.457 0 0 1 296.428 66.99 A 285.223 285.223 0 0 1 296.888 65.863 Q 297.402 64.611 298.08 62.985 A 920.736 920.736 0 0 1 298.73 61.431 Q 302.146 53.092 307.898 40.71 A 952.932 952.932 0 0 1 309.287 37.734 A 5.196 5.196 0 0 1 311.421 37.285 A 8.525 8.525 0 0 1 312.876 37.401 Q 314.576 37.696 315.464 38.745 A 2.009 2.009 0 0 1 315.913 40.037 Q 315.913 40.767 315.688 41.44 Z M 84.565 89.395 L 75.918 89.395 A 381.624 381.624 0 0 0 76.086 83.218 A 303.96 303.96 0 0 0 76.143 77.49 A 330.726 330.726 0 0 0 76.111 73.071 Q 76.058 69.145 75.918 64.407 A 1863.662 1863.662 0 0 0 75.665 56.475 A 2404.654 2404.654 0 0 0 75.356 47.842 Q 74.97 40.739 74.85 35.148 A 221.79 221.79 0 0 1 74.795 30.378 A 98.713 98.713 0 0 1 75.064 22.931 A 76.501 76.501 0 0 1 75.693 17.295 Q 76.816 15.161 78.95 15.161 A 5.767 5.767 0 0 1 80.763 15.433 A 4.642 4.642 0 0 1 82.993 17.014 A 10.958 10.958 0 0 1 83.741 18.08 Q 84.486 19.301 84.565 20.327 L 84.004 38.857 Q 84.004 49.302 85.015 54.468 A 41.512 41.512 0 0 1 95.291 49.414 A 34.37 34.37 0 0 1 105.903 47.729 A 48.783 48.783 0 0 1 110.431 47.949 A 59.454 59.454 0 0 1 113.315 48.291 A 45.137 45.137 0 0 1 117.591 50.799 Q 121.877 53.667 123.83 56.76 A 12.074 12.074 0 0 1 124.321 57.612 A 17.242 17.242 0 0 1 125.894 63.115 A 65.748 65.748 0 0 1 126.16 66.025 Q 126.283 67.772 126.343 69.741 Q 127.017 82.544 128.027 88.608 A 2.87 2.87 0 0 1 126.758 89.804 Q 125.687 90.359 123.892 90.482 A 15.862 15.862 0 0 1 122.805 90.518 Q 118.594 90.518 118.594 87.485 Q 118.594 76.017 118.173 70.773 A 45.232 45.232 0 0 0 118.032 69.292 A 57.916 57.916 0 0 0 117.574 65.562 Q 116.717 60.175 115.055 58.411 A 2.624 2.624 0 0 0 113.765 57.612 Q 105.679 56.04 100.569 56.04 A 13.863 13.863 0 0 0 96.577 56.59 A 11.069 11.069 0 0 0 92.146 59.128 A 12.834 12.834 0 0 0 89.893 61.995 Q 88.184 64.877 87.092 69.348 Q 85.52 75.79 84.726 86.951 A 240.617 240.617 0 0 0 84.565 89.395 Z M 1099.463 89.395 L 1090.815 89.395 A 381.624 381.624 0 0 0 1090.984 83.218 A 303.96 303.96 0 0 0 1091.04 77.49 A 330.726 330.726 0 0 0 1091.008 73.071 Q 1090.956 69.145 1090.815 64.407 A 1863.662 1863.662 0 0 0 1090.563 56.475 A 2404.654 2404.654 0 0 0 1090.254 47.842 Q 1089.868 40.739 1089.747 35.148 A 221.79 221.79 0 0 1 1089.692 30.378 A 98.713 98.713 0 0 1 1089.961 22.931 A 76.501 76.501 0 0 1 1090.591 17.295 Q 1091.714 15.161 1093.848 15.161 A 5.767 5.767 0 0 1 1095.661 15.433 A 4.642 4.642 0 0 1 1097.891 17.014 A 10.958 10.958 0 0 1 1098.639 18.08 Q 1099.384 19.301 1099.463 20.327 L 1098.901 38.857 Q 1098.901 49.302 1099.912 54.468 A 41.512 41.512 0 0 1 1110.188 49.414 A 34.37 34.37 0 0 1 1120.801 47.729 A 48.783 48.783 0 0 1 1125.328 47.949 A 59.454 59.454 0 0 1 1128.213 48.291 A 45.137 45.137 0 0 1 1132.489 50.799 Q 1136.774 53.667 1138.727 56.76 A 12.074 12.074 0 0 1 1139.219 57.612 A 17.242 17.242 0 0 1 1140.791 63.115 A 65.748 65.748 0 0 1 1141.058 66.025 Q 1141.181 67.772 1141.24 69.741 Q 1141.914 82.544 1142.925 88.608 A 2.87 2.87 0 0 1 1141.656 89.804 Q 1140.584 90.359 1138.79 90.482 A 15.862 15.862 0 0 1 1137.703 90.518 Q 1133.491 90.518 1133.491 87.485 Q 1133.491 76.017 1133.071 70.773 A 45.232 45.232 0 0 0 1132.93 69.292 A 57.916 57.916 0 0 0 1132.472 65.562 Q 1131.614 60.175 1129.952 58.411 A 2.624 2.624 0 0 0 1128.662 57.612 Q 1120.576 56.04 1115.466 56.04 A 13.863 13.863 0 0 0 1111.475 56.59 A 11.069 11.069 0 0 0 1107.043 59.128 A 12.834 12.834 0 0 0 1104.79 61.995 Q 1103.081 64.877 1101.99 69.348 Q 1100.417 75.79 1099.624 86.951 A 240.617 240.617 0 0 0 1099.463 89.395 Z M 440.571 72.437 L 440.684 65.586 A 199.066 199.066 0 0 0 440.592 59.346 Q 440.395 53.087 439.773 48.889 A 37.44 37.44 0 0 0 439.224 45.933 A 1.841 1.841 0 0 0 439.337 45.68 Q 439.799 44.367 437.053 44.258 A 13.234 13.234 0 0 0 436.528 44.248 Q 432.873 44.248 427.161 45.997 A 68.602 68.602 0 0 0 426.646 46.157 A 99.354 99.354 0 0 0 422.577 47.529 Q 420.682 48.217 419.08 48.905 A 43.979 43.979 0 0 0 416.763 49.976 Q 407.892 54.247 406.71 58.304 A 4.779 4.779 0 0 0 406.655 58.511 L 406.655 89.058 L 399.131 89.058 A 11.964 11.964 0 0 1 398.598 86.936 Q 397.675 81.679 397.671 67.721 A 426.499 426.499 0 0 1 397.671 67.607 Q 397.671 51.885 398.289 44.473 A 340.704 340.704 0 0 1 398.51 41.918 Q 398.906 37.564 399.164 36.355 A 2.966 2.966 0 0 1 399.243 36.05 A 19.582 19.582 0 0 1 400.715 35.17 Q 402.188 34.382 403.307 34.197 A 4.007 4.007 0 0 1 403.96 34.141 A 2.087 2.087 0 0 1 405.829 35.32 Q 406.728 36.868 406.766 40.447 A 30.142 30.142 0 0 1 406.768 40.767 A 43.751 43.751 0 0 1 406.553 45.158 A 40.03 40.03 0 0 1 406.487 45.764 A 90.242 90.242 0 0 0 406.371 46.813 Q 406.235 48.112 406.211 48.808 A 7.924 7.924 0 0 0 406.206 49.077 A 135.105 135.105 0 0 1 414.538 43.388 Q 426.82 35.713 434.395 35.713 A 10.557 10.557 0 0 1 444.199 41.749 Q 446.603 46.157 447.289 53.783 A 59.175 59.175 0 0 1 447.31 54.019 Q 447.825 58.92 447.946 66.717 A 326.119 326.119 0 0 1 447.983 71.763 L 447.871 80.635 Q 447.871 85.576 448.096 90.181 A 7.86 7.86 0 0 1 447.531 90.491 Q 446.794 90.854 446.299 90.854 A 3.365 3.365 0 0 0 446.114 90.8 Q 445.809 90.718 445.224 90.596 A 48.875 48.875 0 0 0 444.839 90.518 A 14.249 14.249 0 0 0 443.987 90.376 Q 443.098 90.254 441.919 90.181 Q 440.796 85.688 440.684 81.028 A 406.921 406.921 0 0 1 440.599 76.55 A 315.145 315.145 0 0 1 440.571 72.437 Z M 824.316 72.437 L 824.429 65.586 A 199.066 199.066 0 0 0 824.337 59.346 Q 824.14 53.087 823.518 48.889 A 37.44 37.44 0 0 0 822.969 45.933 A 1.841 1.841 0 0 0 823.082 45.68 Q 823.544 44.367 820.798 44.258 A 13.234 13.234 0 0 0 820.273 44.248 Q 816.619 44.248 810.906 45.997 A 68.602 68.602 0 0 0 810.391 46.157 A 99.354 99.354 0 0 0 806.322 47.529 Q 804.427 48.217 802.825 48.905 A 43.979 43.979 0 0 0 800.508 49.976 Q 791.637 54.247 790.456 58.304 A 4.779 4.779 0 0 0 790.4 58.511 L 790.4 89.058 L 782.876 89.058 A 11.964 11.964 0 0 1 782.343 86.936 Q 781.42 81.679 781.416 67.721 A 426.499 426.499 0 0 1 781.416 67.607 Q 781.416 51.885 782.034 44.473 A 340.704 340.704 0 0 1 782.255 41.918 Q 782.651 37.564 782.91 36.355 A 2.966 2.966 0 0 1 782.988 36.05 A 19.582 19.582 0 0 1 784.46 35.17 Q 785.934 34.382 787.052 34.197 A 4.007 4.007 0 0 1 787.705 34.141 A 2.087 2.087 0 0 1 789.574 35.32 Q 790.473 36.868 790.511 40.447 A 30.142 30.142 0 0 1 790.513 40.767 A 43.751 43.751 0 0 1 790.298 45.158 A 40.03 40.03 0 0 1 790.232 45.764 A 90.242 90.242 0 0 0 790.116 46.813 Q 789.98 48.112 789.956 48.808 A 7.924 7.924 0 0 0 789.951 49.077 A 135.105 135.105 0 0 1 798.283 43.388 Q 810.565 35.713 818.14 35.713 A 10.557 10.557 0 0 1 827.945 41.749 Q 830.348 46.157 831.034 53.783 A 59.175 59.175 0 0 1 831.055 54.019 Q 831.571 58.92 831.692 66.717 A 326.119 326.119 0 0 1 831.729 71.763 L 831.616 80.635 Q 831.616 85.576 831.841 90.181 A 7.86 7.86 0 0 1 831.276 90.491 Q 830.539 90.854 830.044 90.854 A 3.365 3.365 0 0 0 829.859 90.8 Q 829.555 90.718 828.969 90.596 A 48.875 48.875 0 0 0 828.584 90.518 A 14.249 14.249 0 0 0 827.732 90.376 Q 826.843 90.254 825.664 90.181 Q 824.541 85.688 824.429 81.028 A 406.921 406.921 0 0 1 824.344 76.55 A 315.145 315.145 0 0 1 824.316 72.437 Z M 467.637 64.351 L 475.835 63.452 Q 485.626 61.369 491.843 61.218 A 39.13 39.13 0 0 1 492.793 61.206 A 36.442 36.442 0 0 1 496.913 61.418 Q 501.059 61.893 503.117 63.43 A 4.817 4.817 0 0 1 505.146 67.495 A 8.337 8.337 0 0 1 504.373 70.842 Q 503.185 73.549 500.172 76.676 A 42.91 42.91 0 0 1 498.296 78.501 A 59.831 59.831 0 0 1 487.16 86.425 Q 481.767 89.447 475.25 91.881 A 108.95 108.95 0 0 1 470.781 93.437 Q 469.995 93.438 469.041 91.865 A 1098.105 1098.105 0 0 1 468.591 91.125 Q 467.96 90.082 467.581 89.451 Q 467.075 88.608 466.851 88.384 Q 479.766 84.116 488.076 78.052 Q 493.186 74.373 493.646 71.903 A 2.602 2.602 0 0 0 493.691 71.426 A 1.845 1.845 0 0 0 492.68 69.802 Q 491.103 68.843 487.065 68.843 A 40.503 40.503 0 0 0 482.85 69.092 Q 478.717 69.529 473.076 70.733 A 184.038 184.038 0 0 0 467.637 71.987 A 15.337 15.337 0 0 1 457.529 67.832 A 15.897 15.897 0 0 1 455.655 65.76 Q 453.823 63.3 453.823 60.813 A 11.352 11.352 0 0 1 455.845 54.299 A 21.941 21.941 0 0 1 458.72 50.904 A 28.348 28.348 0 0 1 461.235 48.74 A 39.667 39.667 0 0 1 465.632 45.831 A 50.415 50.415 0 0 1 469.097 44.023 A 52.131 52.131 0 0 1 491.895 38.745 A 33.177 33.177 0 0 1 498.633 39.419 Q 501.001 39.419 501.635 41.24 A 3.788 3.788 0 0 1 501.777 41.777 Q 502.116 43.555 502.199 47.057 A 104.207 104.207 0 0 1 502.227 49.526 A 33.428 33.428 0 0 0 492.076 46.761 A 41.786 41.786 0 0 0 487.29 46.494 A 42.416 42.416 0 0 0 480.046 47.078 Q 474.431 48.052 470.22 50.649 A 18.392 18.392 0 0 0 466.679 53.268 A 11.228 11.228 0 0 0 463.032 61.206 Q 463.032 63.817 466.206 64.26 A 10.389 10.389 0 0 0 467.637 64.351 Z M 1071.655 74.932 A 208.696 208.696 0 0 1 1071.724 74.907 A 27.748 27.748 0 0 1 1076.266 73.68 A 21.956 21.956 0 0 1 1080.09 73.335 A 9.624 9.624 0 0 1 1081.445 73.422 Q 1083.021 73.647 1083.654 74.458 A 2.125 2.125 0 0 1 1084.077 75.806 A 3.386 3.386 0 0 1 1084.057 76.148 Q 1084.02 76.51 1083.913 77.026 A 18.476 18.476 0 0 1 1083.796 77.546 A 1.896 1.896 0 0 1 1083.473 78.205 Q 1082.851 79.066 1081.142 80.125 A 21.659 21.659 0 0 1 1080.764 80.354 Q 1078.4 81.753 1075.123 83.028 A 58.522 58.522 0 0 1 1074.026 83.442 A 89.117 89.117 0 0 1 1068.762 85.178 A 109.598 109.598 0 0 1 1065.322 86.138 Q 1060.605 87.373 1056.113 88.271 Q 1046.947 90.149 1042.993 90.18 A 16.743 16.743 0 0 1 1042.861 90.181 A 39.394 39.394 0 0 1 1038.244 89.896 A 50.54 50.54 0 0 1 1034.382 89.282 Q 1029.834 88.384 1025.903 86.362 A 19.906 19.906 0 0 1 1021.131 83 A 14.139 14.139 0 0 1 1016.807 72.437 L 1016.807 69.741 A 6.939 6.939 0 0 1 1016.94 68.466 Q 1017.28 66.662 1018.491 63.958 A 25.554 25.554 0 0 1 1020.756 59.96 A 34.824 34.824 0 0 1 1023.545 56.433 A 44.491 44.491 0 0 1 1029.761 50.727 A 50.821 50.821 0 0 1 1031.406 49.526 A 53.569 53.569 0 0 1 1043.549 42.946 A 46.817 46.817 0 0 1 1051.172 40.767 A 43.342 43.342 0 0 1 1053.503 40.319 Q 1054.615 40.139 1055.583 40.055 A 18.477 18.477 0 0 1 1057.18 39.98 A 181.559 181.559 0 0 1 1058.335 39.984 Q 1059.878 39.994 1061.008 40.031 A 59.787 59.787 0 0 1 1061.167 40.037 A 49.695 49.695 0 0 1 1063.589 40.184 A 55.465 55.465 0 0 1 1064.424 40.261 A 8.932 8.932 0 0 1 1065.904 40.53 A 6.709 6.709 0 0 1 1067.344 41.104 Q 1070.145 42.504 1070.259 46.488 A 11.983 11.983 0 0 1 1070.264 46.831 A 4.299 4.299 0 0 1 1069.584 49.085 Q 1068.746 50.464 1066.872 51.812 A 17.959 17.959 0 0 1 1066.445 52.109 A 81.688 81.688 0 0 0 1065.547 52.716 Q 1065.126 53.005 1064.754 53.27 A 48.893 48.893 0 0 0 1064.648 53.345 A 23.776 23.776 0 0 0 1064.115 51.305 Q 1063.81 50.329 1063.441 49.501 A 13.125 13.125 0 0 0 1063.188 48.965 Q 1062.456 47.5 1060.306 47.229 A 8.406 8.406 0 0 0 1059.258 47.168 Q 1046.006 49.976 1036.46 55.591 A 39.998 39.998 0 0 0 1031.998 58.628 Q 1025.679 63.65 1025.679 69.067 Q 1025.679 69.854 1025.791 70.752 A 14.594 14.594 0 0 0 1026.315 74.792 A 9.968 9.968 0 0 0 1031.294 80.972 A 17.009 17.009 0 0 0 1035.392 82.507 Q 1037.362 82.985 1039.676 83.141 A 34.709 34.709 0 0 0 1042.019 83.218 A 47.954 47.954 0 0 0 1047.344 82.938 Q 1050.038 82.636 1052.36 82.01 A 27.07 27.07 0 0 0 1053.418 81.702 Q 1058.247 80.186 1062.795 78.333 A 226.711 226.711 0 0 1 1071.655 74.932 Z M 747.275 81.533 L 747.275 77.827 A 95.783 95.783 0 0 1 739.152 83.311 Q 728.405 89.731 720.322 89.731 A 19.59 19.59 0 0 1 714.22 88.723 A 24.693 24.693 0 0 1 711.394 87.598 A 14.792 14.792 0 0 1 707.85 85.202 Q 706.379 83.889 704.966 82.075 A 35.849 35.849 0 0 1 702.803 78.95 A 26.909 26.909 0 0 1 702.241 73.447 A 18.661 18.661 0 0 1 702.391 71.176 Q 702.532 70.033 702.804 68.745 A 40.663 40.663 0 0 1 703.308 66.653 Q 704.251 63.129 706.948 59.387 A 34.607 34.607 0 0 1 707.688 58.398 A 35.707 35.707 0 0 1 715.279 51.182 A 40.044 40.044 0 0 1 715.718 50.874 Q 726.05 43.911 738.066 43.911 A 31.045 31.045 0 0 1 747.949 45.483 A 48.37 48.37 0 0 1 747.967 44.289 Q 748.014 42.423 748.187 39.19 A 425.084 425.084 0 0 1 748.23 38.408 A 2232.473 2232.473 0 0 1 748.525 33.214 A 2615.279 2615.279 0 0 1 748.848 27.739 A 3267.887 3267.887 0 0 1 749.085 22.685 Q 749.478 14.446 749.671 11.524 A 57.253 57.253 0 0 1 749.746 10.5 A 50.568 50.568 0 0 1 749.938 8.632 Q 750.051 7.716 750.189 6.92 A 25.008 25.008 0 0 1 750.364 6.008 Q 750.757 4.155 751.543 2.808 A 5.502 5.502 0 0 1 755.08 0.261 Q 756.117 0 757.383 0 A 351.001 351.001 0 0 1 756.765 21.057 A 2327.492 2327.492 0 0 0 755.642 41.16 A 381.63 381.63 0 0 0 755.208 53.926 A 454.493 454.493 0 0 0 755.137 62.048 A 173.817 173.817 0 0 0 755.751 76.38 A 207.709 207.709 0 0 0 756.709 85.464 A 11.1 11.1 0 0 1 756.642 86.733 Q 756.455 88.345 755.754 89.17 Q 754.8 90.293 752.554 90.293 A 4.379 4.379 0 0 1 748.364 87.683 Q 747.393 85.745 747.288 82.371 A 26.996 26.996 0 0 1 747.275 81.533 Z M 746.04 69.741 L 746.04 54.805 A 3.268 3.268 0 0 0 744.126 51.681 Q 742.701 50.956 740.215 50.882 A 19.446 19.446 0 0 0 739.639 50.874 Q 738.887 50.767 737.674 50.762 A 28.953 28.953 0 0 0 737.561 50.762 Q 736.58 50.762 734.788 51.086 A 47.008 47.008 0 0 0 733.574 51.323 Q 730.879 51.885 727.51 53.345 A 43.809 43.809 0 0 0 721.291 56.674 A 48.185 48.185 0 0 0 720.884 56.938 A 30.646 30.646 0 0 0 716.022 60.939 A 21.656 21.656 0 0 0 711.45 67.72 Q 710.439 70.078 710.439 72.549 Q 710.439 81.251 716.598 81.418 A 8.977 8.977 0 0 0 716.841 81.421 A 10.742 10.742 0 0 0 717.908 81.365 Q 718.452 81.31 719.048 81.203 A 17.366 17.366 0 0 0 719.087 81.196 A 20.285 20.285 0 0 0 722.672 80.848 Q 724.392 80.538 726.332 79.951 A 50.307 50.307 0 0 0 730.43 78.501 Q 741.963 73.948 745.385 70.489 A 7.58 7.58 0 0 0 746.04 69.741 Z M 172.725 63.564 L 156.553 62.891 A 30.086 30.086 0 0 0 151.872 63.231 Q 147.133 63.979 144.199 66.372 Q 141.729 68.281 140.718 72.1 Q 142.931 80.154 150.585 81.861 A 20.725 20.725 0 0 0 155.093 82.319 A 32.573 32.573 0 0 0 161.245 81.648 Q 167.475 80.434 176.143 77.03 A 189.021 189.021 0 0 0 184.854 73.335 A 2.957 2.957 0 0 1 185.848 73.496 A 2.561 2.561 0 0 1 186.875 74.177 Q 187.661 75.02 187.661 76.143 Q 184.242 81.954 176.075 85.815 A 51.554 51.554 0 0 1 170.479 88.047 A 50.59 50.59 0 0 1 162.061 90.128 Q 154.054 91.362 146.782 89.507 A 26.583 26.583 0 0 1 140.242 86.91 A 17.593 17.593 0 0 1 131.621 75.469 A 32.893 32.893 0 0 1 131.503 73.993 Q 131.404 72.33 131.397 70.066 A 111.77 111.77 0 0 1 131.396 69.741 A 18.685 18.685 0 0 1 131.577 67.27 Q 131.92 64.722 132.909 61.37 A 66.42 66.42 0 0 1 133.25 60.251 Q 135.103 54.355 139.595 49.077 A 33.312 33.312 0 0 1 150.151 40.767 Q 156.216 37.734 163.066 37.734 A 22.756 22.756 0 0 1 169.011 38.579 Q 173.086 39.682 177.666 42.227 Q 181.354 44.287 183.575 46.872 A 15.842 15.842 0 0 1 183.73 47.056 A 11.148 11.148 0 0 1 185.094 49.082 Q 185.894 50.637 185.969 52.229 A 7.001 7.001 0 0 1 185.977 52.559 A 11.104 11.104 0 0 1 185.864 54.131 Q 185.64 60.981 179.238 62.778 A 20.133 20.133 0 0 1 176.308 63.355 Q 174.845 63.538 173.199 63.561 A 34.13 34.13 0 0 1 172.725 63.564 Z M 175.139 47.617 A 18.366 18.366 0 0 0 171.75 45.694 A 15.948 15.948 0 0 0 169.917 45.034 Q 168.148 44.518 166.766 44.341 A 10.587 10.587 0 0 0 165.425 44.248 A 8.496 8.496 0 0 0 164.386 44.322 Q 162.656 44.538 159.717 45.389 A 69.401 69.401 0 0 0 159.585 45.427 A 59.082 59.082 0 0 0 155.767 46.677 A 44.109 44.109 0 0 0 152.397 48.066 Q 144.648 51.66 144.648 55.591 A 341.429 341.429 0 0 0 148.86 55.935 Q 152.913 56.239 155.773 56.334 A 71.429 71.429 0 0 0 158.125 56.377 A 114.804 114.804 0 0 0 163.524 56.26 Q 171.617 55.877 174.971 54.243 Q 177.666 53.12 177.666 51.436 Q 177.666 49.87 176.151 48.439 A 9.44 9.44 0 0 0 175.139 47.617 Z M 249.541 49.189 A 17.295 17.295 0 0 0 243.479 46.488 Q 240.713 45.82 237.412 45.82 A 32.952 32.952 0 0 0 227.536 47.273 A 30.351 30.351 0 0 0 224.497 48.403 A 45.77 45.77 0 0 0 218.028 51.702 Q 214.792 53.716 212.477 56.083 A 21.178 21.178 0 0 0 209.111 60.532 Q 207.314 63.901 207.314 67.72 L 207.314 71.482 A 23.148 23.148 0 0 0 207.424 73.621 Q 207.631 75.839 208.231 78.803 A 82.452 82.452 0 0 0 208.438 79.792 A 50.335 50.335 0 0 1 209.561 90.405 A 24.104 24.104 0 0 0 208.045 90.522 Q 206.7 90.672 205.742 90.967 Q 204.716 91.282 203.912 91.376 A 5.541 5.541 0 0 1 203.271 91.416 A 2.075 2.075 0 0 1 201.814 90.823 A 3.025 3.025 0 0 1 201.531 90.518 Q 200.813 89.634 199.932 87.122 A 37.5 37.5 0 0 1 199.902 87.036 A 11.962 11.962 0 0 1 199.852 86.697 Q 199.737 85.846 199.496 83.612 A 465.231 465.231 0 0 1 199.453 83.218 Q 199.221 81.056 198.91 78.257 A 2112.333 2112.333 0 0 0 198.611 75.581 Q 198.105 71.089 197.488 65.754 Q 196.87 60.42 196.309 55.254 A 2241.251 2241.251 0 0 0 195.726 50.011 Q 194.905 42.704 194.399 38.745 Q 194.399 36.05 198.33 36.05 Q 200.688 36.05 202.036 38.015 A 15.953 15.953 0 0 1 203.738 41.27 A 18.928 18.928 0 0 1 204.17 42.507 Q 204.956 45.034 205.237 47.505 A 90.131 90.131 0 0 0 205.374 48.649 Q 205.574 50.228 205.742 50.986 A 51.723 51.723 0 0 1 236.366 38.011 A 68.298 68.298 0 0 1 242.578 37.734 A 120.235 120.235 0 0 1 246.411 37.798 A 137.044 137.044 0 0 1 247.744 37.847 A 7.207 7.207 0 0 1 248.297 37.778 Q 248.578 37.754 248.901 37.743 A 15.816 15.816 0 0 1 249.429 37.734 A 1.726 1.726 0 0 1 250.282 37.974 Q 250.829 38.282 251.377 38.986 A 6.778 6.778 0 0 1 251.45 39.082 A 5.755 5.755 0 0 1 252.638 42.049 A 7.51 7.51 0 0 1 252.686 42.9 Q 252.686 46.907 251.084 48.398 A 3.203 3.203 0 0 1 249.541 49.189 Z M 391.606 89.507 L 384.98 89.507 A 130.495 130.495 0 0 1 384.63 86.983 Q 384.482 85.828 384.374 84.793 A 74.701 74.701 0 0 1 384.307 84.116 A 315.306 315.306 0 0 0 384.082 81.842 A 250.89 250.89 0 0 0 383.857 79.736 A 105.685 105.685 0 0 0 383.405 76.372 Q 383.127 74.545 382.808 72.945 A 56.947 56.947 0 0 0 382.51 71.538 A 39.759 39.759 0 0 1 374.065 81.199 A 33.563 33.563 0 0 1 360.049 87.935 A 35.294 35.294 0 0 1 357.131 88.418 Q 355.752 88.585 354.506 88.605 A 21.16 21.16 0 0 1 354.153 88.608 A 217.63 217.63 0 0 1 352.889 88.605 Q 351.078 88.594 349.773 88.552 A 18.929 18.929 0 0 1 347.964 88.402 Q 347.043 88.283 346.033 88.075 A 30.995 30.995 0 0 1 345.898 88.047 A 13.8 13.8 0 0 1 342.194 86.711 A 12.999 12.999 0 0 1 341.968 86.587 A 9.635 9.635 0 0 1 339.777 84.926 A 6.875 6.875 0 0 1 337.812 79.961 A 18.281 18.281 0 0 1 337.462 77.67 A 24.684 24.684 0 0 1 337.363 75.413 A 15.232 15.232 0 0 1 337.473 73.674 Q 337.714 71.587 338.486 68.73 Q 339.609 64.575 342.585 59.746 Q 345.562 54.917 349.829 50.874 A 47.501 47.501 0 0 1 358.766 44.028 A 37.611 37.611 0 0 1 369.033 39.868 A 30.211 30.211 0 0 1 371.896 39.368 A 22.13 22.13 0 0 1 374.592 39.194 A 32.586 32.586 0 0 1 376.975 39.277 A 23.787 23.787 0 0 1 379.141 39.531 Q 384.913 39.531 387.334 46.498 A 23.019 23.019 0 0 1 387.9 48.403 Q 389.36 54.019 389.641 64.07 A 1316.793 1316.793 0 0 0 389.781 68.808 Q 389.926 73.397 390.071 76.762 A 332.318 332.318 0 0 0 390.203 79.568 A 58.17 58.17 0 0 0 390.773 85.317 A 45.472 45.472 0 0 0 391.606 89.507 Z M 378.071 47.906 A 9.223 9.223 0 0 0 375.659 47.617 A 11.104 11.104 0 0 0 374.087 47.505 A 19.831 19.831 0 0 0 366.473 49.119 Q 363.605 50.306 360.638 52.366 A 46.166 46.166 0 0 0 356.792 55.366 A 39.249 39.249 0 0 0 349.492 63.452 A 33.782 33.782 0 0 0 347.147 67.275 Q 345 71.413 345 74.907 A 8.398 8.398 0 0 0 345.638 78.286 Q 347.133 81.721 352.136 82.68 A 17.525 17.525 0 0 0 352.637 82.769 Q 362.241 82.555 371.034 74.433 A 46.5 46.5 0 0 0 371.953 73.56 Q 375.884 69.629 378.467 65.024 Q 380.825 60.971 381.636 57.546 A 14.836 14.836 0 0 0 382.061 54.131 Q 382.061 48.989 378.071 47.906 Z M 642.383 68.843 Q 642.383 55.591 653.838 47.505 A 42.539 42.539 0 0 1 668.098 41.092 A 54.885 54.885 0 0 1 675.737 39.756 L 678.882 39.756 Q 681.114 39.756 684.72 40.947 A 44.21 44.21 0 0 1 685.508 41.216 A 23.66 23.66 0 0 1 691.811 44.409 A 18.51 18.51 0 0 1 698.086 52.334 A 22.051 22.051 0 0 1 698.825 54.295 Q 699.129 55.246 699.282 56.089 A 8.925 8.925 0 0 1 699.434 57.668 A 67.778 67.778 0 0 1 699.427 58.683 Q 699.406 60.052 699.325 60.727 A 6.235 6.235 0 0 1 699.321 60.757 A 29.619 29.619 0 0 1 697.56 71.18 A 25.883 25.883 0 0 1 688.652 82.881 Q 678.77 90.293 663.945 90.293 Q 653.276 90.293 647.83 85.352 A 14.544 14.544 0 0 1 644.108 79.763 Q 643.191 77.42 642.762 74.484 A 39.073 39.073 0 0 1 642.383 68.843 Z M 651.244 77.818 A 7.272 7.272 0 0 0 653.838 80.972 Q 656.205 82.487 661.287 82.724 A 42.55 42.55 0 0 0 663.271 82.769 Q 669.199 82.769 673.868 81.96 A 42.601 42.601 0 0 0 674.951 81.758 Q 680.005 80.747 683.936 78.276 A 17.566 17.566 0 0 0 692.086 65.427 A 26.647 26.647 0 0 0 692.358 61.543 A 20.655 20.655 0 0 0 691.81 56.656 A 14.762 14.762 0 0 0 688.765 50.537 Q 684.834 45.933 678.433 45.933 A 403.725 403.725 0 0 0 669.617 47.617 A 23.687 23.687 0 0 0 661.25 51.099 Q 654.557 55.414 651.524 65.53 A 51.496 51.496 0 0 0 650.132 71.538 Q 650.132 75.352 651.244 77.818 Z M 1149.888 68.843 Q 1149.888 55.591 1161.343 47.505 A 42.539 42.539 0 0 1 1175.602 41.092 A 54.885 54.885 0 0 1 1183.242 39.756 L 1186.387 39.756 Q 1188.619 39.756 1192.225 40.947 A 44.21 44.21 0 0 1 1193.013 41.216 A 23.66 23.66 0 0 1 1199.316 44.409 A 18.51 18.51 0 0 1 1205.591 52.334 A 22.051 22.051 0 0 1 1206.33 54.295 Q 1206.634 55.246 1206.786 56.089 A 8.925 8.925 0 0 1 1206.938 57.668 A 67.778 67.778 0 0 1 1206.931 58.683 Q 1206.911 60.052 1206.83 60.727 A 6.235 6.235 0 0 1 1206.826 60.757 A 29.619 29.619 0 0 1 1205.065 71.18 A 25.883 25.883 0 0 1 1196.157 82.881 Q 1186.274 90.293 1171.45 90.293 Q 1160.781 90.293 1155.334 85.352 A 14.544 14.544 0 0 1 1151.613 79.763 Q 1150.696 77.42 1150.267 74.484 A 39.073 39.073 0 0 1 1149.888 68.843 Z M 1158.749 77.818 A 7.272 7.272 0 0 0 1161.343 80.972 Q 1163.71 82.487 1168.792 82.724 A 42.55 42.55 0 0 0 1170.776 82.769 Q 1176.704 82.769 1181.373 81.96 A 42.601 42.601 0 0 0 1182.456 81.758 Q 1187.51 80.747 1191.44 78.276 A 17.566 17.566 0 0 0 1199.591 65.427 A 26.647 26.647 0 0 0 1199.863 61.543 A 20.655 20.655 0 0 0 1199.315 56.656 A 14.762 14.762 0 0 0 1196.27 50.537 Q 1192.339 45.933 1185.937 45.933 A 403.725 403.725 0 0 0 1177.122 47.617 A 23.687 23.687 0 0 0 1168.755 51.099 Q 1162.062 55.414 1159.029 65.53 A 51.496 51.496 0 0 0 1157.637 71.538 Q 1157.637 75.352 1158.749 77.818 Z M 1214.575 68.843 Q 1214.575 55.591 1226.03 47.505 A 42.539 42.539 0 0 1 1240.29 41.092 A 54.885 54.885 0 0 1 1247.93 39.756 L 1251.074 39.756 Q 1253.306 39.756 1256.912 40.947 A 44.21 44.21 0 0 1 1257.7 41.216 A 23.66 23.66 0 0 1 1264.004 44.409 A 18.51 18.51 0 0 1 1270.278 52.334 A 22.051 22.051 0 0 1 1271.018 54.295 Q 1271.322 55.246 1271.474 56.089 A 8.925 8.925 0 0 1 1271.626 57.668 A 67.778 67.778 0 0 1 1271.619 58.683 Q 1271.598 60.052 1271.517 60.727 A 6.235 6.235 0 0 1 1271.514 60.757 A 29.619 29.619 0 0 1 1269.753 71.18 A 25.883 25.883 0 0 1 1260.845 82.881 Q 1250.962 90.293 1236.138 90.293 Q 1225.469 90.293 1220.022 85.352 A 14.544 14.544 0 0 1 1216.3 79.763 Q 1215.384 77.42 1214.954 74.484 A 39.073 39.073 0 0 1 1214.575 68.843 Z M 1223.436 77.818 A 7.272 7.272 0 0 0 1226.03 80.972 Q 1228.398 82.487 1233.479 82.724 A 42.55 42.55 0 0 0 1235.464 82.769 Q 1241.391 82.769 1246.06 81.96 A 42.601 42.601 0 0 0 1247.144 81.758 Q 1252.197 80.747 1256.128 78.276 A 17.566 17.566 0 0 0 1264.279 65.427 A 26.647 26.647 0 0 0 1264.551 61.543 A 20.655 20.655 0 0 0 1264.002 56.656 A 14.762 14.762 0 0 0 1260.957 50.537 Q 1257.026 45.933 1250.625 45.933 A 403.725 403.725 0 0 0 1241.809 47.617 A 23.687 23.687 0 0 0 1233.442 51.099 Q 1226.749 55.414 1223.716 65.53 A 51.496 51.496 0 0 0 1222.324 71.538 Q 1222.324 75.352 1223.436 77.818 Z M 1280.61 90.293 L 1279.712 90.181 A 247.562 247.562 0 0 0 1279.691 87.057 Q 1279.637 82.768 1279.442 77.127 A 723.999 723.999 0 0 0 1279.375 75.244 Q 1279.143 68.99 1278.991 63.851 A 973.415 973.415 0 0 1 1278.87 59.409 A 1154.158 1154.158 0 0 0 1278.687 52.839 A 986.074 986.074 0 0 0 1278.477 46.606 A 1320.877 1320.877 0 0 0 1278.266 41.205 Q 1278.162 38.667 1278.057 36.409 A 772.508 772.508 0 0 0 1278.027 35.769 A 715.693 715.693 0 0 1 1277.926 33.537 Q 1277.789 30.421 1277.747 28.694 Q 1277.69 26.392 1275.894 17.407 Q 1276.904 16.06 1277.859 14.824 A 3.102 3.102 0 0 1 1279.966 13.632 A 4.603 4.603 0 0 1 1280.61 13.589 A 2.068 2.068 0 0 1 1282.161 15.009 Q 1284.983 20.448 1286.675 46.719 A 657.763 657.763 0 0 1 1287.798 85.127 A 5.171 5.171 0 0 1 1287.245 87.595 Q 1285.804 90.293 1280.61 90.293 Z M 323.999 37.397 L 331.074 37.397 A 1189.73 1189.73 0 0 1 332.266 57.042 Q 332.799 67.124 333.252 78.386 A 2101.772 2101.772 0 0 1 333.545 86.025 Q 332.871 89.507 328.154 89.507 A 6.57 6.57 0 0 1 326.349 89.246 A 7.975 7.975 0 0 1 325.627 89.001 A 4.257 4.257 0 0 1 324.953 88.672 Q 324.237 88.233 323.999 87.598 L 323.999 37.397 Z M 766.255 37.397 L 773.33 37.397 A 1189.73 1189.73 0 0 1 774.522 57.042 Q 775.055 67.124 775.508 78.386 A 2101.772 2101.772 0 0 1 775.801 86.025 Q 775.127 89.507 770.41 89.507 A 6.57 6.57 0 0 1 768.605 89.246 A 7.975 7.975 0 0 1 767.883 89.001 A 4.257 4.257 0 0 1 767.208 88.672 Q 766.493 88.233 766.255 87.598 L 766.255 37.397 Z M 320.9 20.451 Q 321.745 18.193 325.234 18.193 A 11.164 11.164 0 0 1 327.33 18.379 Q 328.564 18.615 329.548 19.151 A 6.373 6.373 0 0 1 330.176 19.541 A 9.443 9.443 0 0 1 330.492 21.362 A 8.421 8.421 0 0 1 330.513 21.956 A 3.276 3.276 0 0 1 330.144 23.443 A 4.671 4.671 0 0 1 329.614 24.258 Q 328.72 25.375 326.937 25.381 A 5.712 5.712 0 0 1 326.919 25.381 A 8.135 8.135 0 0 1 324.055 24.846 A 9.798 9.798 0 0 1 323.325 24.539 A 6.371 6.371 0 0 1 321.67 23.438 A 5.549 5.549 0 0 1 320.63 22.124 A 4.76 4.76 0 0 1 320.9 20.451 Z M 763.156 20.451 Q 764.001 18.193 767.49 18.193 A 11.164 11.164 0 0 1 769.586 18.379 Q 770.82 18.615 771.804 19.151 A 6.373 6.373 0 0 1 772.432 19.541 A 9.443 9.443 0 0 1 772.747 21.362 A 8.421 8.421 0 0 1 772.769 21.956 A 3.276 3.276 0 0 1 772.4 23.443 A 4.671 4.671 0 0 1 771.87 24.258 Q 770.976 25.375 769.193 25.381 A 5.712 5.712 0 0 1 769.175 25.381 A 8.135 8.135 0 0 1 766.311 24.846 A 9.798 9.798 0 0 1 765.581 24.539 A 6.371 6.371 0 0 1 763.925 23.438 A 5.549 5.549 0 0 1 762.886 22.124 A 4.76 4.76 0 0 1 763.156 20.451 Z" vector-effect="non-scaling-stroke"/></g></svg>